<?xml version="1.0" encoding="UTF-8" standalone="no"?>
<svg
   width="69"
   height="50"
   viewBox="0 0 69 50"
   fill="none"
   version="1.1"
   id="svg4"
   sodipodi:docname="COLO.svg"
   inkscape:version="1.4 (86a8ad7, 2024-10-11)"
   xmlns:inkscape="http://www.inkscape.org/namespaces/inkscape"
   xmlns:sodipodi="http://sodipodi.sourceforge.net/DTD/sodipodi-0.dtd"
   xmlns="http://www.w3.org/2000/svg"
   xmlns:svg="http://www.w3.org/2000/svg">
  <defs
     id="defs4" />
  <sodipodi:namedview
     id="namedview4"
     pagecolor="#ffffff"
     bordercolor="#000000"
     borderopacity="0.25"
     inkscape:showpageshadow="2"
     inkscape:pageopacity="0.0"
     inkscape:pagecheckerboard="0"
     inkscape:deskcolor="#d1d1d1"
     inkscape:zoom="11.75"
     inkscape:cx="26.12766"
     inkscape:cy="32.808511"
     inkscape:window-width="3440"
     inkscape:window-height="1377"
     inkscape:window-x="-8"
     inkscape:window-y="-8"
     inkscape:window-maximized="1"
     inkscape:current-layer="svg4" />
  <path
     d="M68.2674 20.2701L68.2272 19.8679C67.8652 16.4896 64.6316 12.6929 64.0927 12.2585L63.9961 12.1781C63.3687 11.6392 61.6956 10.1993 58.3736 9.15364C56.7889 8.64689 54.8263 8.5584 53.9334 8.58254C53.9254 8.58254 53.9173 8.57449 53.9012 8.56645C53.7564 8.3734 53.4347 7.94708 53.2577 7.6575C52.397 6.22572 50.9572 4.75371 48.9624 3.28974L48.9141 3.24952L48.8337 3.18517C48.1902 2.69451 46.2436 1.20641 42.278 0.418122C36.9128 -0.643654 33.4459 0.554865 31.5798 1.20641L31.0409 1.38337C25.2976 3.20126 22.5708 6.71638 21.9434 7.61729C21.7262 7.83447 20.1657 10.497 19.4337 11.2289C17.6319 11.4542 12.9022 12.6768 10.6258 15.3795C9.33076 15.3312 7.27156 15.3634 7.24743 15.3634C6.40283 15.4278 5.67889 15.9587 5.40541 16.7309C5.3491 16.8756 5.28475 17.125 5.28475 17.4146C5.28475 17.8972 5.45367 18.5407 6.12934 19.1842C6.54762 19.5864 7.23938 20.0288 7.96332 20.4149C7.6657 21.5089 7.49678 22.9728 7.49678 24.3161C7.49678 24.9114 7.537 25.4664 7.60135 25.9651C7.27156 26.126 6.95785 26.2949 6.74871 26.4316C6.24196 26.7775 5.18018 27.6945 4.44015 28.9574C3.96557 29.7617 3.74839 30.3811 3.68404 31.9336C3.676 32.199 3.63578 33.0034 3.45882 33.3171C3.23359 33.7032 2.50161 34.7569 2.09942 35.32L1.6731 35.9313C1.38353 36.3737 1.19852 36.969 0.973295 37.7733L0.884813 38.071C0.81242 38.2881 0.546976 38.8995 0.45045 39.0684C0.120656 39.5751 0 40.1543 0 40.7495C0 41.3448 0.1287 42.0043 0.273488 42.5996C0.659588 44.144 2.20399 46.6054 3.50708 48.5761L3.68404 48.8415L3.64382 48.7772C3.9897 49.4046 4.47233 49.7987 5.08366 49.9516C5.98456 50.1688 6.65219 49.7264 6.96589 49.5092L7.12677 49.4046C8.18855 48.7531 8.75965 47.8682 9.09749 47.3374C9.09749 47.3374 9.14575 47.273 9.18597 47.2087C9.32272 47.1121 9.5399 46.9432 9.5399 46.9432C10.1995 46.4686 10.6097 46.163 10.8912 45.8171C11.9691 44.514 12.492 42.5433 12.5644 41.6102L12.6367 40.838C12.8298 38.8753 12.8861 38.0468 12.8941 37.6044C12.8941 37.532 12.8941 37.3872 12.9102 37.2344C12.9102 37.0816 12.9987 36.7518 13.0952 36.4783C13.6744 36.6231 14.4225 36.9046 14.6557 37.0413C15.3716 37.4596 17.3665 38.441 20.399 38.4249C23.7291 38.4088 25.5389 37.9583 26.0216 37.8216C26.7133 37.6205 28.5473 36.9207 28.5473 36.9207C28.9012 36.7679 29.3999 36.5346 29.8584 36.1807C31.5959 36.1244 32.907 36.1244 33.8803 36.1565C33.2931 36.792 32.7301 37.6125 32.3842 38.6421C32.0222 39.7038 31.7809 41.1678 31.6763 42.9776C31.6281 43.774 31.5959 44.3773 31.5959 44.8358C31.5959 45.8734 31.7487 46.2273 32.2153 46.6456L32.8829 47.2569L36.6635 46.6054L36.583 46.6215H37.1219L38.417 46.5571C39.2214 46.4525 40.3958 46.1549 41.2725 45.624C42.2217 45.0529 43.0743 43.9992 43.2754 43.7498C43.5006 43.5246 44.4096 42.8409 44.7394 42.6157C44.7796 42.5996 45.1335 42.4307 45.1335 42.4307L46.2436 41.8435C46.2436 41.8435 48.2465 40.3876 49.0026 39.5671C49.2439 39.3097 49.5737 38.9155 49.9115 38.5134C50.0965 38.7386 50.2896 38.9558 50.4907 39.1729L50.6355 39.3338C51.472 40.291 52.5418 40.3634 53.2014 40.1382L53.3543 40.0899L53.499 40.0095C54.046 39.7119 55.3089 39.004 55.7996 38.6742C55.9041 38.626 56.1857 38.5697 56.3144 38.5616C57.1026 38.5616 57.8507 38.0951 58.2529 37.7009C58.2207 37.7331 58.3414 37.6205 58.3414 37.6205C60.6419 35.4969 64.7764 31.5394 66.538 28.9091C67.3584 27.6865 67.8893 26.6729 68.1628 25.1366C68.565 22.8763 68.5248 22.3132 68.2996 20.2782L68.2674 20.2701ZM27.6223 35.2959C27.3488 35.4406 26.3192 35.8026 25.4987 36.0359C24.7989 36.237 23.0615 36.5507 20.3829 36.5668C18.1387 36.5748 16.4897 35.9715 15.5808 35.4406C15.1142 35.1672 13.7307 34.6443 12.8781 34.5478C12.5644 34.5156 11.9369 34.9178 11.6232 35.2878C11.3095 35.6578 11.0682 36.6794 11.0441 37.4677C11.0199 38.256 10.7786 40.8139 10.7304 41.4493C10.6741 42.0848 10.2558 43.6775 9.4675 44.6347C9.24228 44.9081 8.20463 45.5919 7.89093 45.8573C7.57722 46.1228 7.19916 47.1845 6.16152 47.82C5.67889 48.1176 5.53411 48.3509 5.26866 47.8763C5.15605 47.6672 2.48552 43.8383 2.06725 42.1411C1.9305 41.6022 1.68919 40.5323 2.0029 40.0578C2.19595 39.7601 2.54183 38.9558 2.6464 38.634C2.75097 38.3123 3.01641 37.2505 3.22555 36.9368C3.43468 36.615 4.69755 34.8695 5.05952 34.226C5.42954 33.5906 5.50193 32.7379 5.53411 31.9979C5.58237 30.735 5.72716 30.4213 6.04086 29.8824C6.61197 28.9011 7.48069 28.161 7.7944 27.9519C8.10811 27.7428 8.92053 27.3567 9.29054 27.2521C9.54794 27.1797 9.64447 26.5603 9.58012 26.3753C9.11358 25.0562 9.41924 21.2273 9.99839 20.2138C10.1673 19.9242 10.2236 19.3773 9.89382 19.2566C8.9527 18.9188 7.87484 18.2833 7.4083 17.8489C6.88546 17.3502 7.24743 17.2135 7.38417 17.2054C7.52091 17.1974 10.6258 17.2054 10.843 17.2054C11.0923 17.2215 11.5347 17.1572 11.6715 16.9722C13.7629 14.0845 19.2648 12.7733 20.8655 12.5159L19.12 24.3242L22.1203 27.9278H27.1799L26.5122 32.4484L28.4025 34.9178C28.0727 35.1028 27.7268 35.2315 27.6223 35.2878V35.2959ZM66.3127 24.8068C66.0956 26.0536 65.6612 26.8499 64.9775 27.8715C62.8941 30.9764 57.0302 36.2772 56.9096 36.3978C56.7889 36.5185 56.4752 36.7116 56.242 36.7116C56.0087 36.7116 55.1802 36.8322 54.786 37.1137C54.3919 37.3953 52.5821 38.3847 52.5821 38.3847C52.5821 38.3847 52.3086 38.4651 51.9949 38.1031C51.6811 37.7492 50.7722 36.8322 50.5792 36.1565C50.5068 35.9072 49.992 35.2798 49.4772 36.0359C49.1795 36.4863 48.1821 37.709 47.6271 38.3042C47.0721 38.8995 45.4231 40.1382 45.1496 40.3312C44.8761 40.5323 43.9672 40.8943 43.7339 41.0471C43.5006 41.208 42.1171 42.2054 41.8436 42.5594C41.5701 42.9133 40.8945 43.6775 40.3073 44.0314C39.7201 44.3933 38.8111 44.6266 38.1837 44.7071C37.5563 44.7875 36.6071 44.7071 36.2532 44.7875C35.8993 44.8679 33.462 45.2621 33.462 45.2621C33.462 45.2621 33.4459 41.4172 34.1297 39.2132C34.6686 37.4918 35.6821 36.5346 36.76 36.0117H42.093L45.7368 32.4886L47.7236 19.0314H49.1956L49.7748 15.1462H43.4122L41.0151 31.3464H31.612L32.1187 27.9278H36.0602L39.8407 24.3563L40.621 19.0555H35.8349L35.2075 23.2865H32.8024L34.001 15.2025H27.6142L27.0431 19.0475H28.5071L27.8797 23.2865H24.2519L26.0216 11.3576H37.0174L36.4463 15.2186H41.2001L41.908 10.4326L39.2375 6.7566H25.2011C26.5122 5.55808 28.5956 4.10216 31.612 3.153C33.1725 2.66233 36.4463 1.1501 41.9241 2.23601C45.7449 2.99212 47.3938 4.42391 47.8282 4.74566C48.2625 5.05937 50.547 6.7003 51.6811 8.60667C51.9546 9.0732 52.5097 9.79714 52.6625 9.95802C52.8234 10.1189 53.491 10.4809 53.8047 10.4326C54.0782 10.3924 56.25 10.4165 57.8185 10.9072C61.0843 11.9448 62.5402 13.3766 62.9344 13.6984C63.3285 14.0201 66.1036 17.3744 66.4012 20.069C66.6345 22.2569 66.7149 22.5787 66.3208 24.8068H66.3127Z"
     fill="#CFB87C"
     id="path1" />
  <path
     d="M56.314 25.0722C56.6357 24.5735 56.9494 22.9486 56.9494 22.9486C57.1183 22.1523 57.7136 20.4631 59.0247 18.1867C59.1212 18.0178 59.1051 17.9615 59.0569 17.9454C58.9845 17.9293 58.8477 17.9937 58.7914 18.0258C58.7753 18.0258 58.7673 18.0339 58.7673 18.0339C57.4079 18.7417 53.4906 20.8814 53.4102 24.3402C53.4102 24.3402 53.4826 25.9409 55.0833 25.8685C55.0833 25.8685 55.7911 25.8685 56.314 25.0722Z"
     fill="white"
     id="path4" />
  <path
     d="m 20.865234,12.515625 c -1.6007,0.2574 -7.101959,1.569331 -9.193359,4.457031 -0.1368,0.185 -0.578825,0.248522 -0.828125,0.232422 -0.2172,0 -3.3222444,-0.008 -3.4589844,0 -0.13674,0.0081 -0.4994025,0.145831 0.023437,0.644531 0.46654,0.4344 1.5452082,1.06845 2.4863282,1.40625 0.3297797,0.1207 0.2724257,0.667432 0.1035156,0.957032 -0.57915,1.0135 -0.8845088,4.843009 -0.4179688,6.162109 0.06435,0.185 -0.031662,0.804553 -0.2890625,0.876953 -0.37001,0.1046 -1.1823837,0.490119 -1.4960937,0.699219 -0.31371,0.2091 -1.1827963,0.95034 -1.7539063,1.93164 -0.3137,0.538901 -0.4595525,0.852335 -0.5078125,2.115235 -0.03218,0.74 -0.1045894,1.593116 -0.4746094,2.228515 -0.3619699,0.6435 -1.6248543,2.389138 -1.8339843,2.710938 -0.20914,0.3137 -0.473555,1.375566 -0.578125,1.697266 -0.10457,0.3218 -0.4514813,1.126128 -0.6445313,1.423828 -0.31371,0.4745 -0.072297,1.543131 0.064453,2.082031 0.4182699,1.6972 3.0905149,5.527228 3.2031249,5.736328 0.2654501,0.4746 0.4099482,0.24096 0.8925782,-0.05664 1.03764,-0.6355 1.4148056,-1.69739 1.7285156,-1.96289 0.3137,-0.2654 1.3509519,-0.949256 1.5761719,-1.222656 0.7883001,-0.9572 1.2073721,-2.550047 1.2636721,-3.185547 0.0482,-0.6354 0.290253,-3.194122 0.314453,-3.982422 0.0241,-0.7883 0.264425,-1.809688 0.578125,-2.179688 0.3137,-0.37 0.942159,-0.772434 1.255859,-0.740234 0.8526,0.0965 2.234572,0.621131 2.701172,0.894531 0.9089,0.5309 2.558534,1.133 4.802734,1.125 2.6786,-0.0161 4.415435,-0.33015 5.115235,-0.53125 0.8205,-0.2333 1.8515,-0.593581 2.125,-0.738281 v -0.0098 c 0.1045,-0.0563 0.449497,-0.18414 0.779297,-0.36914 l -1.890625,-2.46875 0.667968,-4.521485 h -5.058593 l -3.001953,-3.603515 z"
     style="fill:#000000"
     id="path7" />
  <path
     d="m 38.220703,1.8515625 c -3.304851,-0.0098 -5.439,0.9327787 -6.609375,1.3007813 -3.0164,0.9491599 -5.099056,2.4049956 -6.410156,3.6035156 h 14.037109 l 2.669922,3.6757816 -0.708984,4.787109 h -4.751953 l 0.570312,-3.861328 H 26.021484 l -1.769531,11.929687 h 3.626953 l 0.628906,-4.240234 h -1.464843 l 0.570312,-3.84375 h 6.388672 l -1.199219,8.083984 h 2.404297 l 0.626953,-4.232422 h 4.78711 l -0.78125,5.300782 -3.779297,3.572265 h -3.941406 l -0.507813,3.417969 h 9.404297 l 2.396484,-16.199219 h 6.363282 l -0.580079,3.884766 h -1.472656 l -1.986328,13.457031 -3.642578,3.523438 h -5.333984 c -1.0779,0.5229 -2.09196,1.479772 -2.63086,3.201172 -0.6838,2.204 -0.666015,6.048828 -0.666015,6.048828 0,0 2.437115,-0.39421 2.791015,-0.47461 0.3539,-0.0804 1.302288,3.22e-4 1.929688,-0.08008 0.6274,-0.0805 1.535847,-0.313881 2.123047,-0.675781 0.5872,-0.3539 1.263609,-1.118756 1.537109,-1.472656 0.2735,-0.354 1.657325,-1.350819 1.890625,-1.511719 0.2333,-0.1528 1.142516,-0.513744 1.416016,-0.714844 0.2735,-0.193 1.921562,-1.432043 2.476562,-2.027344 0.555,-0.5952 1.551909,-1.819131 1.849609,-2.269531 0.5148,-0.7561 1.031116,-0.128206 1.103516,0.121094 0.193,0.6757 1.100263,1.593366 1.414063,1.947266 0.3137,0.362 0.58789,0.28125 0.58789,0.28125 0,0 1.809025,-0.989885 2.203125,-1.271485 0.3942,-0.2815 1.223731,-0.402344 1.457031,-0.402344 0.233201,10e-7 0.547269,-0.191799 0.667969,-0.3125 0.1206,-0.120599 5.983006,-5.422443 8.066406,-8.527343 0.683701,-1.0216 1.118838,-1.817653 1.335938,-3.064453 h 0.0078 c 0.3941,-2.2281 0.313379,-2.550382 0.08008,-4.738282 -0.2976,-2.6946 -3.072697,-6.04744 -3.466797,-6.36914 -0.3942,-0.3218 -1.849435,-1.755369 -5.115235,-2.792969 -1.5685,-0.4907 -3.740171,-0.514809 -4.013672,-0.474609 -0.3137,0.0483 -0.981678,-0.311777 -1.142578,-0.4726566 -0.1528,-0.16088 -0.706968,-0.8850325 -0.980468,-1.3515625 -1.1341,-1.90637 -3.419216,-3.5476181 -3.853516,-3.8613282 -0.4344,-0.32175 -2.083497,-1.7536556 -5.904297,-2.5097656 C 40.554378,1.9648506 39.32232,1.8548303 38.220703,1.8515625 Z"
     style="fill:#000000"
     id="path6" />
</svg>
