<?xml version="1.0" encoding="UTF-8" standalone="no"?>
<svg
   width="2279.5154"
   height="1920.557"
   viewBox="0 0 175.75611 148.07955"
   version="1.1"
   id="svg23"
   sodipodi:docname="unc-tar-heels-8.svg"
   inkscape:version="1.4 (86a8ad7, 2024-10-11)"
   xmlns:inkscape="http://www.inkscape.org/namespaces/inkscape"
   xmlns:sodipodi="http://sodipodi.sourceforge.net/DTD/sodipodi-0.dtd"
   xmlns="http://www.w3.org/2000/svg"
   xmlns:svg="http://www.w3.org/2000/svg">
  <defs
     id="defs23" />
  <sodipodi:namedview
     id="namedview23"
     pagecolor="#ffffff"
     bordercolor="#000000"
     borderopacity="0.25"
     inkscape:showpageshadow="2"
     inkscape:pageopacity="0.0"
     inkscape:pagecheckerboard="0"
     inkscape:deskcolor="#d1d1d1"
     inkscape:zoom="0.16617009"
     inkscape:cx="-2058.1321"
     inkscape:cy="803.39366"
     inkscape:window-width="3440"
     inkscape:window-height="1377"
     inkscape:window-x="-8"
     inkscape:window-y="-8"
     inkscape:window-maximized="1"
     inkscape:current-layer="svg23" />
  <path
     d="m 117.22579,28.051432 c 13.91,-4.287 26.875,-6.158 38.033,-0.517 10.789,5.456 20.305,17.553 18.756,38.892 4.646,18.068 1.205,41.299998 -25.297,54.549998 -1.377,6.711 -4.301,16.349 -11.357,18.413 -7.055,2.065 -11.873,-1.892 -6.883,-8.604 -4.303,2.409 -15.314,7.228 -26.328,4.99 -11.703,14.799 -48.873,19.618 -59.199,-4.818 -2.581,-1.721 -11.529,-5.852 -15.659,-16.348 -3.27,0 -6.712,-1.722 -7.399,-11.703 -4.474,0 -13.4230003,1.55 -18.9300003,-2.063 -5.507,-3.613998 -2.06500004,-7.915998 0.173,-8.603998 2.236,-0.688 10.1520003,-0.861 13.0770003,-5.163 -5.334,-6.884 -11.1850003,-20.822 9.465,-29.426 -4.646,-13.079 -6.539,-28.738 7.4,-33.212 6.883,-7.917 16.52,-13.939 30.63,-13.767 0.688,-0.516 1.377,-1.3759996 2.237,-2.0649996 1.205,-3.442 3.097,-6.368 6.54,-7.744 3.441,-1.377 8.432,-1.032 10.153,0.516 7.4,-0.172 13.424,0.172 19.963,4.99 7.57,-0.688 16.52,-1.032 16.002,5.1619996 -0.516,6.195 -1.377,9.465 -2.752,11.014 0.343,1.548 0.859,4.13 1.375,5.507 z"
     fill="#253554"
     id="path2"
     style="clip-rule:evenodd;fill-rule:evenodd" />
  <path
     d="m 79.08779,4.5514324 c 0.449,1.279 -1.065,2.977 -3.382,3.79 -2.317,0.812 -4.559,0.433 -5.008,-0.846 -0.449,-1.279 1.066,-2.976 3.382,-3.789 2.316,-0.813 4.558,-0.435 5.008,0.845 z m -9.873,7.3229996 c 4.474,0.86 11.014,-0.688 13.595,-5.8519996 6.023,-0.688 11.529,-0.171 15.832,3.271 -4.646,1.3759996 -11.358,3.7859996 -18.069,7.2269996 -6.712,3.442 -14.972,7.228 -19.618,7.744 2.065,-5.678 4.646,-9.12 8.26,-12.39 z"
     fill="#7da9d5"
     id="path3"
     style="clip-rule:evenodd;fill-rule:evenodd" />
  <path
     d="m 59.06079,19.963432 c -0.171,1.032 -0.344,1.204 -1.72,1.893 -1.377,0.688 -5.507,3.098 -5.679,4.818 -0.172,1.721 -0.172,3.098 3.442,2.925 3.613,-0.172 12.39,-3.614 13.423,-3.958 1.033,-0.344 2.064,0.345 0.688,1.206 -1.376,0.86 -12.562,4.991 -16.692,4.646 -4.13,-0.343 -4.475,-3.786 -2.926,-5.851 1.549,-2.066 5.507,-4.991 9.464,-5.679 z"
     fill="#7da9d5"
     id="path4"
     style="clip-rule:evenodd;fill-rule:evenodd" />
  <path
     d="m 72.34079,30.970432 4.12,9.239 c 0.942,2.114 1.799,4.239 1.075,6.47 -0.602,1.888 -2.28,3.21 -3.962,3.96 -1.682,0.75 -3.788,1.115 -5.594,0.3 -2.143,-0.951 -3.152,-3.008 -4.095,-5.122 l -4.12,-9.239 3.746,-1.671 3.858,8.65 c 0.952,2.136 2.125,4.408 4.534,3.333 2.409,-1.074 1.502,-3.465 0.55,-5.6 l -3.857,-8.65 z m 2.37,-1.057 3.746,-1.671 11.341,6.985 0.039,-0.017 -4.481,-10.044 3.746,-1.671 7.329,16.429 -3.748,1.671 -11.35,-7.008 -0.038,0.018 4.489,10.067 -3.746,1.67 z m 29.598,-6.591 c -1.291,-0.835 -2.814,-0.914 -4.094,-0.342 -2.293,1.022 -2.947,3.718 -1.811,6.268 1.156,2.592 3.559,3.767 5.891,2.728 1.223,-0.546 2.145,-1.766 2.453,-3.184 l 2.283,5.121 c -1.049,0.99 -1.801,1.717 -2.967,2.237 -2.008,0.895 -4.307,0.875 -6.486,-0.006 -2.316,-0.926 -3.996,-2.738 -5.084,-5.179 -1,-2.244 -1.217,-4.734 -0.559,-6.959 0.676,-2.287 2.271,-4.202 4.299,-5.105 1.205,-0.538 2.449,-0.727 3.791,-0.698 z"
     fill="#ffffff"
     id="path5"
     style="clip-rule:evenodd;fill-rule:evenodd" />
  <path
     d="m 60.95479,15.661432 c -5.334,2.237 -15.349,7.062 -15.66,12.045 -0.172,2.754 -0.172,4.302 0.86,5.507 1.032,1.204 5.507,6.023 6.883,8.433 -1.549,2.064 -3.442,4.474 -4.474,5.85 -4.13,-8.432 -7.399,-13.595 -11.358,-13.595 -3.958,0 -7.399,6.023 -6.883,11.874 0.517,5.852 3.098,13.94 7.056,20.134 l -1.721,2.065 c -4.129,-7.744 -10.786,-19.219 -8.087,-30.976 2.409,-10.497 11.701,-7.916 14.111,-6.883 1.549,-3.098 3.614,-6.539 6.367,-8.948 -2.065,0.688 -6.195,4.302 -6.883,5.334 -0.86,-0.171 -1.549,-0.516 -2.581,-0.861 4.99,-4.646 11.357,-10.152 22.37,-9.979 z"
     fill="#b2b8b6"
     id="path6"
     style="clip-rule:evenodd;fill-rule:evenodd" />
  <path
     d="m 45.63879,52.659432 c -2.753,1.032 -6.194,1.548 -8.088,1.205 -1.893,-0.344 -2.582,-0.861 -3.27,-3.442 -0.688,-2.581 -0.517,-6.884 0,-8.087 0.517,-1.205 2.048,-2.176 4.13,-0.688 2.41,1.719 3.959,3.783 7.228,11.012 z m -8.776,5.85 c 1.893,0.173 5.162,-0.171 6.54,-0.516 0,0 -0.516,1.72 -0.86,2.754 l -3.614,0.172 c -0.689,-0.517 -2.066,-2.41 -2.066,-2.41 z"
     fill="#7da9d5"
     id="path7"
     style="clip-rule:evenodd;fill-rule:evenodd" />
  <path
     d="m 55.10379,45.086432 c 1.721,3.098 3.958,8.261 4.99,9.981 1.033,1.72 2.409,4.129 10.153,2.065 7.744,-2.065 22.371,-8.949 31.664,-14.628 4.818,1.893 10.498,4.646 16.004,14.971 5.506,10.325 5.68,12.391 15.488,17.036 9.809,4.647 21.51,9.293 22.887,9.981 1.377,0.688 2.926,1.376 1.203,3.958 -1.719,2.581 -4.816,4.818 -10.152,3.786 0.861,1.204 1.377,2.236 0.689,2.753 -0.689,0.517 -2.58,3.442 -9.121,2.409 0,0 -2.926,-3.097 -3.785,-3.785 1.203,-0.345 1.549,-1.722 1.203,-3.099 4.131,0 10.842,-0.517 13.768,-3.785 0.648,-0.726 0.172,-1.033 -1.205,-1.033 -1.377,0 -10.152,0.345 -17.035,-2.064 0,0.688 -0.174,1.549 0.172,2.582 -5.508,-0.518 -13.666,-2.368 -19.963,-11.186 -0.859,-1.205 -2.754,-1.206 -2.236,0.516 0.516,1.721 3.27,6.884 6.711,10.324 -5.852,0.173 -21.166,4.132 -21.166,17.724998 0,13.595 18.758,19.102 26.156,20.479 -1.721,1.894 -4.818,4.302 -12.734,1.894 -1.254,-0.383 -1.893,0.516 -1.375,1.204 0.516,0.688 1.549,2.065 3.096,3.098 -3.957,0.688 -7.398,2.237 -15.314,-1.548 -2.926,3.268 -6.023,6.538 -13.939,6.022 -8.23,-0.538 -8.948,-7.572 -16.004,-12.218 a 43.48,43.48 0 0 1 2.41,8.432 c -14.799,-0.688 -26.845,-6.195 -33.557,-16.348 -1.53,-2.315 0.688,-2.754 1.376,-2.754 -2.409,-0.344 -3.958,-0.688 -5.163,-0.688 -1.205,0 -2.237,-0.688 -2.753,-2.236 -0.517,-1.55 -0.517,-2.926 -0.861,-4.475 8.604,-1.032 37.859,-2.236 53.347,22.542 0.344,-3.269 0.86,-5.85 0.516,-7.227 -0.344,-1.376 -0.666,-2.088 -2.237,-3.614 -6.022,-5.851 -19.445,-15.314 -45.775,-16.003 0.517,-1.720998 2.926,-4.990998 5.163,-6.366998 2.065,1.721 4.99,3.27 6.883,3.785 l 0.172,2.753998 c 2.065,-1.032998 6.372,-2.450998 9.465,-2.064998 8.26,1.032 8.948,-0.173 8.432,-1.721 -0.516,-1.549 -5.248,-3.825 -7.916,-2.925 -6.254,2.107 -9.001,1.351 -12.391,-0.345 -1.032,-0.517 -0.688,-2.409 0.688,-2.926 1.377,-0.516 5.507,-2.236 9.465,-1.893 3.958,0.344 4.99,-0.344 6.023,-1.721 1.033,-1.377 3.269,-4.131 0.344,-9.292 -2.926,-5.163 -6.712,-7.572 -12.562,-10.326 v 4.99 c -1.721,2.582 -3.958,7.917 -1.204,13.939 l -1.721,0.173 c -1.893,-6.54 -1.721,-13.251 0.344,-17.381 2.065,-4.131 3.27,-6.195 3.098,-9.122 1.721,0 3.441,-0.516 4.302,1.549 0.861,2.065 3.442,8.088 5.851,10.152 2.409,2.066 8.949,1.377 5.679,-7.398 0.172,3.613 -3.614,7.398 -5.506,1.204 -1.893,-6.194 -5.507,-10.841 -8.604,-11.357 1.547,-2.922 4.472,-7.569 6.537,-8.774 z"
     fill="#ffffff"
     id="path8"
     style="clip-rule:evenodd;fill-rule:evenodd" />
  <path
     d="m 49.42479,72.964432 c 1.721,1.033 3.614,2.237 4.818,4.475 -1.721,-0.346 -2.753,-0.173 -3.614,1.031 0.516,1.377 1.376,2.582 2.925,3.614 -1.549,0.172 -3.958,-0.173 -4.99,-1.721 -0.688,1.377 -0.861,3.27 -0.861,5.679 -1.547,-4.474 -1.547,-9.464 1.722,-13.078 z"
     fill="#ffffff"
     id="path9"
     style="clip-rule:evenodd;fill-rule:evenodd" />
  <path
     d="m 97.18079,49.522432 c 5.504,-3.27 14.799,-3.786 11.355,3.614 -1.375,-1.549 -2.236,-3.958 -11.355,-3.614 z m -28.224,18.242 c -1.032,3.098 0.172,6.195 3.442,4.818 5.251,-2.21 14.455,-13.594 21.854,-16.865 4.156,-1.835 14.973,-1.893 12.047,7.572 -2.064,-2.409 -4.426,-4.72 -11.873,-2.237 -9.294,3.097 -20.307,22.886 -27.19,14.799 -1.986,-2.334 -0.517,-6.54 1.72,-8.087 z m 0.689,16.347 c 7.743,-7.056 26.5,-12.391 31.662,-17.897 -0.859,2.065 -2.408,4.991 -3.439,6.54 2.924,8.088 -0.172,20.478 -11.358,22.888 -11.186,2.409 -13.595,-7.917 -13.079,-10.153 l -0.688,-1.205 c -0.689,-10e-4 -3.098,-0.173 -3.098,-0.173 z"
     fill="#253554"
     id="path10"
     style="clip-rule:evenodd;fill-rule:evenodd" />
  <path
     d="m 92.53179,75.851432 c -0.846,0.377 -2.408,0.859 -5.678,2.064 -3.269,1.204 -7.572,3.613 -8.776,5.852 -2.775,5.153 1.377,8.604 4.302,9.293 -1.967,-2.271 -2.733,-5.474 -0.198,-8.905 1.382,1.757 2.419,2.896 6.22,2.193 -1.721,-1.326 -3.238,-3.059 -3.923,-4.571 3.777,-3.111 8.28,-3.575 10.635,-0.592 2.582,-5.851 -1.033,-6.022 -2.582,-5.334 z"
     fill="#ffffff"
     id="path11"
     style="clip-rule:evenodd;fill-rule:evenodd" />
  <path
     d="m 40.04679,111.30143 c 7.399,0.344 12.906,1.377 20.134,6.711 -1.205,0.516 -2.065,0.688 -3.958,0 -1.892,-0.688 -4.474,-1.721 -7.916,0.86 -0.86,-2.754 -2.581,-5.334 -5.507,-5.679 -1.709,-0.201 -2.408,-1.032 -2.753,-1.892 z m 47.152,5.851 c 2.925,2.58 4.818,5.161 4.818,8.947 -0.861,1.032 -2.408,2.753 -4.647,4.302 1.205,-5.163 1.549,-8.431 -0.171,-13.249 z"
     fill="#253554"
     id="path12"
     style="clip-rule:evenodd;fill-rule:evenodd" />
  <path
     d="m 26.27979,77.399432 c 3.958,-0.86 10.153,-6.711 13.25,-6.711 -0.344,2.753 -0.86,7.572 -0.688,9.637 -6.023,0.517 -8.26,-0.344 -12.562,-2.926 z"
     fill="#ffffff"
     id="path13"
     style="clip-rule:evenodd;fill-rule:evenodd" />
  <path
     d="m 39.70279,83.595432 a 25.145,25.145 0 0 1 -4.812,-0.115 c -2.738,2.418 -3.722,5.028 -4.997,8.376 -1.033,-1.033 -2.581,-1.894 -3.441,-4.131 0.543,-0.949 3.863,-3.18 6.427,-4.588 -5.495,-1.207 -8.418,-4.159 -9.181,-5.049 -1.033,-1.204 -0.688,-2.409 1.205,-3.098 1.893,-0.688 6.022,-3.27 7.916,-4.645 -0.516,-1.205 -1.893,-3.786 -2.925,-5.852 -1.033,-2.065 -5.334,-2.409 -10.841,1.893 -3.422,2.673 -4.991,8.259 -2.925,13.938 2.065,5.679 9.98,11.874 14.799,15.144 1.377,-1.377 6.884,-5.852 9.637,-7.399 -0.346,-1.204 -0.346,-3.27 -0.862,-4.474 z"
     fill="#b2b8b6"
     id="path14"
     style="clip-rule:evenodd;fill-rule:evenodd" />
  <path
     d="m 18.70879,73.959432 c 1.548,-3.098 3.786,-6.711 9.292,-6.54 -3.098,2.065 -6.712,4.302 -7.228,12.046 -1.032,-2.066 -1.548,-3.27 -2.064,-5.506 z"
     fill="#253554"
     id="path15"
     style="clip-rule:evenodd;fill-rule:evenodd" />
  <path
     d="m 19.56879,91.338432 c 1.377,1.55 4.302,4.647 6.711,6.367 -2.237,1.722 -11.384,3.690998 -19.7900003,0.689 -2.409,-0.861 -1.38,-1.758 0.172,-1.894 3.9590003,-0.343 9.8090003,-1.892 12.9070003,-5.162 z"
     fill="#b2b8b6"
     id="path16"
     style="clip-rule:evenodd;fill-rule:evenodd" />
  <path
     d="m 19.22479,98.222432 c -0.86,-0.859 -1.376,-2.236 -1.548,-2.753 -0.172,-0.516 -0.173,-0.86 0.688,-0.516 0.86,0.344 2.065,1.548 3.442,2.58 -0.001,0 -1.377,0.689 -2.582,0.689 z"
     fill="#253554"
     id="path17"
     style="clip-rule:evenodd;fill-rule:evenodd" />
  <path
     d="m 105.26779,40.058432 c 3.441,-1.893 18.584,-10.325 25.982,-10.669 7.4,-0.345 19.789,-0.688 27.018,6.711 -3.613,-2.237 -10.324,-5.507 -21.166,-4.474 3.615,1.72 8.26,4.99 9.809,7.744 0.516,-1.721 0,-3.958 -0.344,-5.163 3.957,0.516 7.227,2.926 8.775,7.745 0.689,-0.861 1.205,-2.065 1.205,-3.615 2.238,1.377 4.818,4.647 5.506,8.088 0.689,-0.688 1.551,-1.548 2.066,-2.409 3.098,3.098 6.195,7.745 5.506,20.134 0,0 -1.031,-0.688 -1.549,-1.204 -0.516,-4.303 -0.516,-5.852 -2.064,-7.917 -0.861,2.238 -2.408,3.097 -4.131,2.926 0.172,-2.926 -0.516,-6.713 -2.924,-8.949 -0.689,2.236 -3.098,5.334 -4.818,5.334 -0.518,-3.958 -1.895,-6.539 -5.164,-9.98 0,2.409 -0.344,8.087 -2.236,9.292 4.818,1.205 12.77,4.811 16.865,8.087 4.301,3.442 10.152,14.112 6.711,27.535 -2.906,11.334998 -13.252,23.746998 -21.684,27.360998 -0.344,-0.86 -0.859,-2.409 -1.205,-3.442 4.131,-2.582 11.875,-7.916 15.145,-13.937998 3.27,-6.023 8.432,-16.005 3.785,-27.018 -4.645,-11.014 -15.488,-13.939 -21.338,-13.767 -5.852,0.171 -10.842,3.098 -12.391,4.13 -1.547,1.032 -5.467,1.695 -7.572,-0.861 -2.408,-2.925 -6.193,-10.498 -8.432,-13.422 -2.476,-3.24 -7.226,-6.366 -11.355,-8.259 z"
     fill="#b2b8b6"
     id="path18"
     style="clip-rule:evenodd;fill-rule:evenodd" />
  <path
     d="m 114.04379,39.197432 c 1.377,-0.516 3.611,-1.548 4.645,-1.893 3.443,0.861 6.885,3.097 8.088,6.711 -3.098,-2.581 -7.745,-3.097 -12.733,-4.818 z m 14.627,9.465 c 3.27,2.064 4.99,5.507 4.129,9.121 -0.859,1.032 -3.096,2.236 -4.99,2.581 1.376,-3.27 2.236,-7.745 0.861,-11.702 z m -3.615,-13.595 c 1.205,-0.688 2.926,-1.377 3.959,-1.722 2.41,0.172 7.229,2.41 8.777,7.745 -1.893,-2.065 -6.711,-4.818 -12.736,-6.023 z m 14.283,8.605 c 2.41,2.064 4.992,5.162 4.303,10.152 -1.377,0.345 -4.988,1.377 -6.195,2.237 2.064,-3.442 3.097,-8.259 1.892,-12.389 z"
     fill="#253554"
     id="path19"
     style="clip-rule:evenodd;fill-rule:evenodd" />
  <path
     d="m 138.55579,67.276432 c 2.064,0.688 3.611,1.893 4.301,3.098 0.69,1.205 0.861,3.27 1.549,4.474 -2.926,-0.516 -3.957,-0.86 -4.646,-3.441 -0.314,-1.176 -0.517,-3.099 -1.204,-4.131 z"
     fill="#b2b8b6"
     id="path20"
     style="clip-rule:evenodd;fill-rule:evenodd" />
  <path
     d="m 148.88179,74.332432 c -1.379,-2.754 -3.615,-7.916 -1.033,-9.809 2.58,-1.893 6.193,-2.065 8.775,0 2.58,2.064 4.646,4.646 5.162,5.678 0.518,1.033 0.172,2.065 -0.344,2.926 -0.515,0.86 -4.646,4.13 -12.56,1.205 z m 3.267,4.645 c 2.754,-0.688 7.988,-1.979 10.67,0.345 2.58,2.237 2.754,9.637 0.344,12.906 -3.656,4.96 -4.99,4.475 -6.195,3.786 -1.205,-0.689 -0.859,-2.41 0,-3.098 0.861,-0.688 5.223,-3.067 3.959,-7.917 -1.033,-3.957 -4.303,-4.646 -6.195,-4.646 -10e-4,0.001 -1.378,-0.859 -2.583,-1.376 z m -9.98,23.403998 c 2.064,-0.859 5.506,-2.924998 7.398,-4.128998 1.895,-1.205 4.131,-1.721 5.508,-0.346 1.377,1.377 1.377,3.442998 0.518,4.646998 -0.861,1.204 -7.4,6.022 -9.639,7.227 -0.859,-1.548 -2.236,-5.161 -3.785,-7.399 z"
     fill="#7da9d5"
     id="path21"
     style="clip-rule:evenodd;fill-rule:evenodd" />
  <path
     d="m 103.96579,113.05143 c -3.785,-1.894 -8.594,-9.456 -2.582,-16.864998 5.682,-6.999 22.027,-8.947 28.91,-0.516 -3.785,-1.032 -7.57,-2.753 -13.938,-1.893 -2.41,-1.033 -4.129,-1.033 -6.367,-0.86 1.721,0.688 2.582,1.721 3.27,2.409 -1.377,0.688 -3.957,2.581 -4.99,3.957 -1.721,0.173 -5.508,-0.171 -6.367,0 2.754,1.549998 5.162,2.925998 6.711,3.785998 2.582,-3.269998 8.777,-9.291998 18.93,-4.816998 10.152,4.473998 16.348,15.658998 16.348,21.337998 0,5.679 -1.514,13.546 -8.088,16.176 -3.441,1.377 -2.926,-0.861 -2.754,-1.721 0.174,-0.861 2.066,-4.646 3.959,-2.581 0,-2.753 -0.172,-3.785 -0.861,-4.646 0.172,-1.034 0.516,-2.754 0.689,-3.786 1.721,0.343 4.129,0.516 5.334,-0.173 -2.236,-0.688 -4.99,-1.549 -6.023,-6.711 1.205,-0.173 2.926,-0.344 3.957,-1.032 -2.236,-0.861 -6.021,-2.237 -7.57,-6.195 1.033,-0.518 2.582,-1.549 3.27,-1.721 -2.754,-0.517 -7.916,-1.55 -11.186,-4.475 1.549,-0.345 3.27,-1.033 4.303,-1.033 -4.131,-1.376 -9.982,-2.579998 -12.391,-1.720998 -2.408,0.860998 -7.572,5.162998 -4.818,10.841998 2.754,5.679 12.219,9.808 21.682,7.743 l 0.346,2.066 c -5.334,2.236 -23.23,2.581 -27.535,-10.67 0,0 -2.752,-2.236 -4.129,-2.925 0.341,1.549 1.03,4.647 1.89,6.024 z"
     fill="#b2b8b6"
     id="path22"
     style="clip-rule:evenodd;fill-rule:evenodd" />
  <path
     d="m 115.32279,111.33043 c -1.033,-1.55 -1.455,-4.001 -0.859,-4.99 1.033,-1.721 2.41,-1.032 2.41,0 0,1.032 -0.346,3.269 -1.551,4.99 z m 4.647,-4.647 c 0.172,1.72 -0.344,4.646 -1.893,6.194 2.064,1.722 4.99,3.098 7.744,2.927 2.752,-0.173 3.959,-0.861 2.752,-2.927 -1.203,-2.064 -2.924,-4.817 -8.603,-6.194 z m -23.233,27.017 c -3.057,1.968 -5.875,3.169 -8.441,3.83 -0.879,1.219 -1.743,2.549 -2.227,3.226 -1.131,-0.783 -1.425,-1.699 -1.374,-2.613 a 18.444,18.444 0 0 1 -4.872,-0.243 c -0.568,1.704 -1.608,3.317 -3.048,4.233 -1.89,-1.535 -1.67,-3.721 -1.125,-5.552 a 18.815,18.815 0 0 1 -3.177,-1.848 c -0.445,0 -0.913,-0.008 -1.396,-0.021 -0.367,3.511 -3.04,4.941 -5.315,5.699 -0.361,-1.327 0.206,-3.92 0.756,-5.946 a 181.3,181.3 0 0 1 -4.953,-0.448 c -0.806,1.281 -2.231,2.923 -3.375,3.813 -0.504,-0.883 -1.008,-2.779 -1.309,-4.34 -2.494,-0.3 -4.75,-0.598 -6.436,-0.823 12.734,19.273 43.709,9.637 48.872,0.861 -1.031,0.001 -2.58,0.172 -2.58,0.172 z"
     fill="#7da9d5"
     id="path23"
     style="clip-rule:evenodd;fill-rule:evenodd" />
</svg>
