<?xml version="1.0" encoding="UTF-8" standalone="no"?>
<!-- Generator: Adobe Illustrator 21.1.0, SVG Export Plug-In . SVG Version: 6.00 Build 0)  -->

<svg
   version="1.1"
   id="Layer_1"
   x="0px"
   y="0px"
   width="313.30093"
   height="441.44214"
   viewBox="0 0 313.30093 441.44215"
   xml:space="preserve"
   sodipodi:docname="CHW_2.svg"
   inkscape:version="1.4 (86a8ad7, 2024-10-11)"
   xmlns:inkscape="http://www.inkscape.org/namespaces/inkscape"
   xmlns:sodipodi="http://sodipodi.sourceforge.net/DTD/sodipodi-0.dtd"
   xmlns="http://www.w3.org/2000/svg"
   xmlns:svg="http://www.w3.org/2000/svg"><defs
   id="defs7" /><sodipodi:namedview
   id="namedview7"
   pagecolor="#ffffff"
   bordercolor="#000000"
   borderopacity="0.25"
   inkscape:showpageshadow="2"
   inkscape:pageopacity="0.0"
   inkscape:pagecheckerboard="0"
   inkscape:deskcolor="#d1d1d1"
   inkscape:zoom="2.7434042"
   inkscape:cx="156.55731"
   inkscape:cy="220.71119"
   inkscape:window-width="3440"
   inkscape:window-height="1377"
   inkscape:window-x="-8"
   inkscape:window-y="-8"
   inkscape:window-maximized="1"
   inkscape:current-layer="g7" />
<style
   type="text/css"
   id="style1">
	.st0{fill:#FFFFFF;}
	.st1{fill:none;stroke:#000000;stroke-width:0.267;}
</style>
<g
   id="g7"
   transform="translate(6.5627397,6.5722656)">
	<path
   id="path1"
   style="fill:#ffffff"
   sodipodi:type="inkscape:offset"
   inkscape:radius="6.5713086"
   inkscape:original="M 116 0 C 81.8 -4.7369516e-15 63.999219 15.200391 46.199219 34.400391 C 36.299219 44.900391 25.800391 67.299609 24.400391 82.099609 C 22.000391 106.99961 27.899219 124.69922 33.199219 132.69922 C 38.799219 141.19922 53.699609 157.50078 71.599609 165.80078 C 89.499609 174.00078 114.20039 185.09922 116.90039 186.19922 C 119.60039 187.29922 133.40039 193.60078 133.40039 196.80078 L 107.30078 215.80078 C 95.100781 211.40078 74.199609 213.59922 67.599609 215.19922 C 50.699609 219.19922 35.000391 226.89961 23.900391 236.59961 C 13.600391 245.59961 4.3996094 257.1 1.5996094 266 C -2.0003906 277.6 -0.1 285.10039 14 276.40039 C 23 270.70039 37.599219 261.8 56.199219 259 C 73.999219 256.4 95.100781 260.2 96.300781 261.5 C 99.300781 261.5 109.69922 267.50078 111.69922 268.80078 L 111.69922 295 C 111.69922 295 105.90078 300.20078 104.30078 301.80078 C 102.90078 303.20078 103.70039 306.20078 104.90039 306.30078 L 175 348.90039 L 195.5 333.19922 L 200.80078 342 L 176.59961 371.59961 L 159.09961 356.09961 C 153.89961 351.29961 149.59961 353.80039 149.59961 360.90039 L 149.59961 400.59961 C 149.59961 400.59961 167.90078 417.90078 172.80078 422.80078 C 177.80078 427.80078 182.4 427.30039 185 423.90039 C 187.6 420.60039 221.30078 377.19922 221.30078 377.19922 C 221.30078 377.19922 245.69922 414.69922 249.19922 420.19922 C 250.89922 422.79922 253.10078 432.30039 261.30078 426.40039 C 269.40078 420.50039 286.79961 406.9 289.09961 404.5 C 290.99961 402.6 292.30078 401.49961 292.30078 400.09961 L 292.30078 358.40039 C 292.30078 356.10039 289.99961 352.3 285.59961 356.5 L 264.5 372.5 L 247.19922 344.90039 L 282.09961 300.80078 L 292.09961 308.59961 C 300.69961 314.39961 300.09961 302.59961 300.09961 302.59961 L 300.09961 270.90039 C 300.09961 270.90039 283.40039 253.8 280.40039 250.5 C 277.50039 247.2 273.50039 248.80078 271.90039 251.30078 C 270.30039 253.80078 242.90039 287.90039 242.90039 287.90039 C 240.40039 284.50039 231.59961 281.90039 231.59961 281.90039 L 231.5 224.90039 C 231.5 224.90039 233.6 222.30078 237.5 218.80078 C 238.9 217.50078 246.3 207.5 231.5 207.5 L 225.69922 207.5 C 230.79922 191.9 231.19922 178.19922 231.19922 178.19922 C 231.19922 178.19922 228.60078 151.3 221.80078 144.5 C 214.00078 132.3 207.90078 128.7 200.30078 123 C 191.30078 116.3 133.09961 86.800781 133.09961 86.800781 L 112.5 76.599609 C 97.1 68.799609 92.299609 61.399219 92.599609 52.699219 C 92.799609 46.899219 100.4 36.300781 114 36.300781 C 122.9 36.200781 129.59961 36.7 141.09961 40.5 C 149.29961 43.3 164.80078 49.599219 164.80078 64.699219 L 164.59961 67.300781 L 187.19922 82.699219 L 227 31.400391 L 200.09961 13.400391 C 192.99961 20.500391 192.09922 20.5 184.69922 19 C 177.19922 17.6 143.8 0 116 0 z "
   d="m 116,-6.5722656 c -36.134591,0 -56.494919,16.9611336 -74.599609,36.4863276 C 29.90092,42.122161 19.49355,64.231912 17.859375,81.46875 c -2.526896,26.21655 3.335474,45.0058 9.859375,54.85547 7.47e-4,0.001 0.0012,0.003 0.002,0.004 6.426994,9.75024 21.506659,26.34135 41.115234,35.4336 a 6.5719657,6.5719657 0 0 0 0.02734,0.0137 c 8.969955,4.10914 19.62805,8.93623 28.390625,12.87891 8.762574,3.94268 15.150954,6.80911 17.167974,7.63086 0.89657,0.36527 4.98739,2.20947 8.39257,4.09375 l -16.80078,12.23242 c -14.561345,-3.96428 -32.207942,-1.67409 -39.939451,0.19726 -17.847182,4.22605 -34.386587,12.25987 -46.498047,22.84375 v -0.002 c -10.9285572,9.54923 -20.6937313,21.09172 -24.2441407,32.37695 a 6.5719657,6.5719657 0 0 0 -0.00781,0.0254 c -1.007927,3.24777 -1.702261,6.32165 -1.8515625,9.36719 -0.1493016,3.04554 0.079608,6.396 2.5546874,9.49414 2.4750793,3.09814 7.0831473,4.22091 10.625,3.65039 3.5418523,-0.57051 6.8585943,-2.14105 10.7988283,-4.57226 a 6.5719657,6.5719657 0 0 0 0.06445,-0.041 c 8.895699,-5.63394 22.580522,-13.87624 39.646484,-16.44922 8.076462,-1.17796 17.389315,-0.92415 24.640625,-0.17773 3.62761,0.37341 6.759439,0.86736 8.90625,1.30859 1.073406,0.22062 1.913254,0.43428 2.324219,0.56055 0.205483,0.0631 0.310464,0.11181 0.175781,0.0527 -0.134682,-0.0591 -0.454233,0.0999 -1.736328,-1.28906 a 6.5719657,6.5719657 0 0 0 4.828125,2.11524 c -1.440721,0 -0.229952,0.005 0.90625,0.46875 1.136202,0.46378 2.65219,1.18735 4.156249,1.96289 1.67627,0.86432 2.45697,1.36518 3.76367,2.12109 v 19.49414 c -1.72383,1.54563 -3.91591,3.47842 -5.472653,5.03516 -2.801825,2.80182 -2.957451,6.07503 -2.488281,8.58984 0.234584,1.2574 0.635999,2.46268 1.552734,3.77344 0.628885,0.89919 1.69712,1.98927 3.23438,2.68164 l 69.63476,42.3164 a 6.5719657,6.5719657 0 0 0 7.4082,-0.39843 l 9.11914,-6.98438 -12.27539,15.01367 -12.38281,-10.96679 0.0996,0.0918 c -1.84065,-1.69906 -3.85899,-3.04635 -6.30078,-3.75586 -2.44179,-0.7095 -5.46121,-0.59318 -7.92969,0.7129 -4.93696,2.61214 -6.29883,7.79527 -6.29883,12.67187 v 39.69922 a 6.5719657,6.5719657 0 0 0 2.0586,4.77539 c 0,0 18.48445,17.48836 23.06836,22.07227 3.28986,3.28986 7.14812,5.46899 11.41211,5.62109 4.26199,0.15203 8.30864,-2.11242 10.65039,-5.17188 2.47852,-3.14741 23.10854,-29.72196 30.59961,-39.36914 6.03164,9.27482 20.10245,30.90068 22.83789,35.19922 a 6.5719657,6.5719657 0 0 0 0.0449,0.0684 c -0.22268,-0.34056 0.38469,0.83139 1.06055,2.20313 0.67585,1.37174 1.57015,3.12992 3.19531,4.91406 1.62516,1.78414 4.37599,3.67996 7.7539,3.92773 3.37792,0.24778 6.58782,-1.06071 9.42969,-3.10547 a 6.5719657,6.5719657 0 0 0 0.0312,-0.0215 c 4.18241,-3.04645 10.5642,-7.93152 16.26367,-12.4082 2.84974,-2.23835 5.52051,-4.36774 7.65625,-6.11719 2.12965,-1.74446 3.4503,-2.78482 4.74024,-4.12891 0.84188,-0.8361 1.68583,-1.58327 2.66797,-2.7832 1.0131,-1.23777 2.375,-3.43997 2.375,-6.17578 v -41.69922 c 0,-3.34155 -0.9074,-6.50116 -4.75782,-8.93945 -1.9252,-1.21915 -4.75315,-1.71812 -7.13281,-1.15235 -2.37965,0.56577 -4.25494,1.8482 -5.91992,3.4375 l 0.56641,-0.48242 -15.375,11.66016 -11.02344,-17.58399 27.97265,-35.3457 4.85547,3.78711 a 6.5719657,6.5719657 0 0 0 0.36719,0.26562 c 2.977,2.00775 6.41771,3.37632 10.1582,2.4336 3.74049,-0.94273 5.90259,-4.00427 6.8086,-6.1836 1.81202,-4.35864 1.26953,-8.03125 1.26953,-8.03125 l 0.01,0.33399 v -31.69922 a 6.5719657,6.5719657 0 0 0 -1.87109,-4.5918 c 0,0 -17.10104,-17.54884 -19.53711,-20.22851 l 0.0723,0.082 c -2.78673,-3.1711 -7.34155,-4.57662 -10.91211,-3.89063 -3.57056,0.686 -6.26161,2.67855 -8.0586,5.48633 0.2671,-0.41734 -0.50008,0.68564 -1.37695,1.82422 -0.87686,1.13859 -2.06829,2.66387 -3.45703,4.42774 -2.77747,3.52772 -6.34684,8.01682 -9.86719,12.42968 -5.05543,6.33715 -7.57863,9.4745 -9.9707,12.45508 -0.9463,-0.44131 -1.91889,-0.93492 -2.79688,-1.31055 -0.39175,-0.1676 -0.35969,-0.1188 -0.73242,-0.26757 l -0.0879,-49.76954 c 0.69372,-0.79709 1.23448,-1.54185 3.8125,-3.85546 a 6.5719657,6.5719657 0 0 0 0.082,-0.0762 c 1.31333,-1.21951 1.95359,-2.13968 2.92774,-3.79492 0.97415,-1.65524 2.03867,-3.74883 2.23437,-6.72656 0.19571,-2.97773 -1.35986,-7.20175 -4.48047,-9.39063 -2.42679,-1.70222 -5.27926,-2.28183 -8.45312,-2.52343 3.12688,-12.75517 3.56836,-22.78907 3.56836,-22.78907 a 6.5719657,6.5719657 0 0 0 -0.0274,-0.82421 c 0,0 -0.67084,-6.99638 -2.24414,-14.94336 -0.78664,-3.9735 -1.79334,-8.20848 -3.14648,-12.13086 -1.25089,-3.62599 -2.65446,-6.98422 -5.28711,-9.91016 -8.20801,-12.68344 -15.58897,-17.4178 -22.81836,-22.83984 a 6.5719657,6.5719657 0 0 0 -0.0195,-0.0137 c -3.1185,-2.32155 -8.25369,-5.21784 -15.04688,-8.96485 -6.79318,-3.74701 -14.94099,-8.07849 -22.80273,-12.197264 -15.72349,-8.237554 -30.30469,-15.626953 -30.30469,-15.626953 a 6.5719657,6.5719657 0 0 0 -0.0547,-0.02734 L 115.46875,70.738281 c -0.005,-0.0025 -0.007,-0.0053 -0.0117,-0.0078 -7.18912,-3.642944 -11.42745,-7.014876 -13.63672,-9.814453 -2.210797,-2.801521 -2.758528,-4.910832 -2.652341,-7.990235 0.0059,-0.172513 1.041361,-3.424082 3.583981,-5.791015 C 105.29458,44.767833 108.907,42.873047 114,42.873047 a 6.5719657,6.5719657 0 0 0 0.0742,-0.002 c 8.60975,-0.09674 14.01581,0.254927 24.9375,3.861328 3.86926,1.322938 9.11501,3.435699 12.97851,6.441406 3.84989,2.995111 6.19936,6.192824 6.22852,11.435547 l -0.16992,2.185547 a 6.5719657,6.5719657 0 0 0 2.85156,5.935547 L 183.5,88.128906 a 6.5719657,6.5719657 0 0 0 8.89062,-1.402344 L 232.19141,35.427734 A 6.5719657,6.5719657 0 0 0 230.6543,25.939453 L 203.75391,7.9394531 a 6.5719657,6.5719657 0 0 0 -8.30079,0.8144532 c -3.45174,3.4517467 -5.01721,4.4367817 -5.07617,4.4570317 -0.0589,0.02025 -0.72379,0.08932 -4.37304,-0.650391 a 6.5719657,6.5719657 0 0 0 -0.0996,-0.01953 C 185.60587,12.48531 181.74282,11.174431 177.14844,9.3378906 172.55405,7.5013507 166.71613,5.1322287 160.17969,2.7890625 147.10681,-1.89727 131.28675,-6.5722656 116,-6.5722656 Z" />
	<path
   class="st0"
   d="m 63,112 c 9.1,7.5 28,19 33.8,21.8 13.6,6.7 29.3,16.1 36.4,21.1 10.4,7.4 11.5,19.3 11.9,20.8 0.4,1.5 0,19.3 -2.9,24.5 0,-4.1 -7.6,-13 -13.4,-15.1 -0.6,-0.2 -16.3,-8.3 -18.6,-9.4 C 108,174.6 83.5,164.3 80.9,162.4 80.2,161.9 70.7,158.3 61.3,152 53.6,146.9 46.2,139.7 41.6,133.4 31,119.1 29.3,102.2 29.3,92.6 c 0,-5.8 1.3,-14.3 3.3,-20.8 4.1,-13.4 10,-20 10,-20 -2.4,2.4 -2.2,26.5 2.5,36.8 C 47.4,97.5 63,112 63,112"
   id="path2"
   style="fill:#000000" />
	<path
   class="st0"
   d="m 163.3,180.1 c 7.4,7.4 31.2,21.1 35.6,23.3 4.4,2.2 17.1,9.9 20.4,10.9 4,1.2 12.6,-0.1 12.6,-0.1 l -7,7.8 0.1,65.7 c 12.2,0 16.5,7.4 14.9,7.4 -1.9,0 -5.6,2.2 -7,3 -1.5,0.8 -22.6,16.7 -22.6,16.7 l -36.5,26.8 c 0,0 -57.8,-34.8 -59.3,-35.9 -0.6,-0.6 -2.8,-1.4 -2.8,-1.4 1.8,-1.2 2.2,-1.3 2.7,-1.7 1.3,-1.1 3.1,-1.8 3.1,-7.7 0,-1.5 -0.1,-72.7 -0.1,-72.7 0,-3.2 -1.1,-5.2 -1.1,-5.2 l 42.1,-31.6 c 1.8,-2 4.9,-5.3 4.9,-5.3"
   id="path3"
   style="fill:#000000" />
	<path
   d="m 150.5,223.2 13.2,-9.7 c 12.3,10.2 32.1,17.2 32.3,20 0.2,3.5 0.1,56 0.1,56 l -22.4,18.2 -23.1,-14.1"
   id="path4"
   style="fill:#ffffff" />
	<path
   class="st1"
   d="m 150.5,223.2 13.2,-9.7 c 12.3,10.2 32.1,17.2 32.3,20 0.2,3.5 0.1,56 0.1,56 l -22.4,18.2 -23.1,-14.1 z"
   id="path5" />
	<path
   class="st0"
   d="m 167.4,51.1 c 3.6,3.6 4.3,14 4.3,14 l 14.5,9.2 31.5,-41.2 -17.1,-11.5 c -4.8,5.2 -14.1,5.6 -17.8,3.7 -3.7,-1.9 -35.6,-13.4 -40.1,-14.9 -8.5,-2.7 -27.1,-4.7 -37.1,-3.3 -10,1.5 -26.5,4.5 -39.3,18.2 -15,16 -15.2,28.8 -15.2,35.6 0,10.8 2.8,25 14.9,37 17.4,17.4 43.8,28.2 49.8,31.5 10.6,5.8 43.8,23.2 48.6,26 20.4,11.9 28.2,24.5 26,40.4 -2,14.8 -15.2,26 -15.2,26 0,0 -16.9,14.5 -26.1,14.5 -6.7,0 -24.6,-11.8 -42.1,-14.7 -16.7,-2.8 -26.9,-2.6 -40.1,0.6 -14.7,3.6 -30.1,9.6 -44.5,24.1 C 6,262.8 6.2,273.8 6.2,273.8 l 16.3,-9.7 c 13.6,-7.7 31.6,-12.3 44.3,-12.3 33,0 48.8,10.3 51.4,14.8 2.7,4.6 30.1,-7.6 30.1,-7.6 7.7,0 34.4,-12.2 47.7,-25.5 6.8,-6.8 19.5,-15.7 25.2,-33.8 8.3,-26.4 2.4,-51.8 -17.1,-66.3 -14.1,-10.5 -71.7,-39.7 -71.7,-39.7 0,0 -34.8,-17 -38.6,-20.8 -2.7,-2.7 -8.2,-6.9 -8.2,-20 0,-7.8 8.7,-16.5 12.5,-18.3 6,-2.9 8,-4.2 20.2,-4.4 6.9,-0.1 13.3,1.6 14.2,1.7 7.6,0.7 25.7,6.6 34.9,19.2"
   id="path6"
   style="fill:#000000" />
	<polyline
   class="st0"
   points="160.4,267.8 181.9,252.5 262.6,380.8 285.2,363.7 285.3,399.3 257.1,422 172.3,287.4 160.4,295.3     "
   id="polyline6"
   style="fill:#000000" />
	<polyline
   class="st0"
   points="276.2,256.8 294.8,273.5 294.8,303.2 281.1,292.1 179.5,419.8 155.4,397.6 155.3,361.6 176.5,380.9     "
   id="polyline7"
   style="fill:#000000" />
</g>
</svg>
