<?xml version="1.0" encoding="UTF-8" standalone="no"?>
<!-- Created with Inkscape (http://www.inkscape.org/) -->

<svg
   width="52.211113mm"
   height="70.55555mm"
   viewBox="0 0 52.211113 70.55555"
   version="1.1"
   id="svg1"
   xml:space="preserve"
   inkscape:version="1.4 (86a8ad7, 2024-10-11)"
   sodipodi:docname="DET.svg"
   xmlns:inkscape="http://www.inkscape.org/namespaces/inkscape"
   xmlns:sodipodi="http://sodipodi.sourceforge.net/DTD/sodipodi-0.dtd"
   xmlns="http://www.w3.org/2000/svg"
   xmlns:svg="http://www.w3.org/2000/svg"><sodipodi:namedview
     id="namedview1"
     pagecolor="#ffffff"
     bordercolor="#000000"
     borderopacity="0.25"
     inkscape:showpageshadow="2"
     inkscape:pageopacity="0.0"
     inkscape:pagecheckerboard="0"
     inkscape:deskcolor="#d1d1d1"
     inkscape:document-units="mm"
     showgrid="false"
     inkscape:zoom="2.9606624"
     inkscape:cx="97.951052"
     inkscape:cy="145.40665"
     inkscape:window-width="1147"
     inkscape:window-height="1211"
     inkscape:window-x="411"
     inkscape:window-y="59"
     inkscape:window-maximized="0"
     inkscape:current-layer="g1" /><defs
     id="defs1" /><g
     inkscape:label="Layer 1"
     inkscape:groupmode="layer"
     id="layer1"
     transform="translate(-53.898384,-115.1756)"><g
       id="g1"
       transform="translate(-24.771064,2.0221276)"><path
         style="fill:#f8eced"
         d="m 79.710393,182.42161 c -1.143831,-3.46584 1.186177,-10.58211 4.676441,-14.28269 0.768595,-0.81491 0.8228,-1.03106 0.4386,-1.74894 -0.549736,-1.02719 -0.144657,-2.21467 1.252348,-3.67123 1.524538,-1.58954 1.763889,-2.62186 1.763889,-7.60769 0,-5.20266 0.05043,-5.13688 -2.822222,-3.6812 -2.1034,1.06587 -3.294231,1.11549 -4.233334,0.17639 -0.866249,-0.86625 -0.875674,-1.53273 -0.04739,-3.35139 0.810703,-1.78007 3.132624,-3.8901 5.472446,-4.97307 1.217065,-0.56331 1.461417,-0.76426 0.748556,-0.61559 -0.582083,0.1214 -1.647321,0.5157 -2.367196,0.87622 -3.324518,1.66496 -5.638394,-0.37628 -4.005642,-3.53367 0.979047,-1.89327 5.129436,-4.98306 6.693542,-4.98306 0.295793,0 0.989024,-0.96308 1.587073,-2.20486 0.58403,-1.21267 1.680244,-2.87429 2.43603,-3.69248 l 1.374156,-1.48762 -2.941145,-1.45697 c -6.11109,-3.02729 -12.020977,-10.52418 -9.938206,-12.60695 0.835291,-0.8353 2.153604,-0.4158 4.652533,1.48044 2.994825,2.27255 5.148793,3.38782 8.691364,4.50018 2.252821,0.70738 3.330674,0.8235 7.399434,0.7972 5.47135,-0.0354 8.25267,-0.64287 13.39656,-2.9261 l 3.12853,-1.38867 1.35065,2.34709 c 1.99569,3.46799 5.73929,7.07777 8.65445,8.34508 l 2.36491,1.0281 -1.74755,1.84777 -1.74755,1.84778 v 15.20808 c 0,16.92817 -0.1328,15.92428 2.52356,19.0763 0.74635,0.88561 1.35699,1.70932 1.35699,1.83047 0,0.12114 -0.75406,0.32908 -1.67569,0.46207 -2.77302,0.40016 -6.83715,1.815 -9.08403,3.1624 -2.63003,1.57718 -4.42651,3.28032 -6.21821,5.89516 l -1.38699,2.02419 -1.94974,-1.58809 c -2.14129,-1.7441 -4.91749,-3.23904 -7.90756,-4.25808 -1.41261,-0.48143 -2.947636,-0.66119 -5.64444,-0.66098 -3.396206,2.5e-4 -3.875357,0.0865 -5.76326,1.03718 -2.654555,1.33675 -5.179175,4.1078 -6.785845,7.4482 -1.129267,2.34784 -1.361768,2.61644 -2.264817,2.61644 -0.845167,0 -1.074415,-0.20621 -1.431244,-1.28741 z m 6.070893,-7.26514 c 1.205768,-1.23236 2.812632,-2.4229 4.056945,-3.00583 1.899222,-0.88973 2.391513,-0.96338 6.293717,-0.94166 3.850434,0.0214 4.497312,0.12319 7.151922,1.12487 1.60522,0.60571 4.05292,1.8554 5.43934,2.77709 l 2.52075,1.6758 0.53266,-0.86039 c 0.29296,-0.47321 1.53204,-1.84063 2.75351,-3.03872 2.5461,-2.49736 6.44242,-4.62463 10.28229,-5.6138 l 2.46766,-0.63568 -1.1898,-1.55823 c -0.65439,-0.85703 -1.28056,-2.05639 -1.3915,-2.66526 -0.11093,-0.60886 -0.15448,-8.04205 -0.0968,-16.51818 l 0.10494,-15.41116 1.03261,-1.07752 c 0.56794,-0.59264 0.96482,-1.12518 0.88195,-1.18342 -0.0829,-0.0582 -0.7749,-0.41709 -1.53785,-0.79743 -2.47005,-1.23136 -5.9172,-4.97701 -8.53669,-9.2759 -0.0394,-0.0647 -1.53612,0.4682 -3.32594,1.18429 -6.25221,2.50147 -12.90592,3.24611 -18.60326,2.08197 -3.354625,-0.68545 -8.378476,-3.03253 -11.159289,-5.21347 -1.149574,-0.90159 -2.221137,-1.63926 -2.38125,-1.63926 -1.182,0 1.265012,3.98086 4.046298,6.58262 2.560139,2.39488 5.007014,3.89423 8.263224,5.06336 l 2.193693,0.78764 -2.27658,2.19948 c -2.192936,2.11867 -3.673808,4.52767 -3.691048,6.0044 -0.0065,0.55645 -0.459156,0.83807 -2.141865,1.33256 -2.643457,0.77683 -5.979282,3.7348 -5.979282,5.30199 0,1.1874 0.843996,1.25383 2.860403,0.22514 0.781652,-0.39877 2.204077,-0.81776 3.160946,-0.93108 l 1.739762,-0.20605 v 1.63664 c 0,1.36597 -0.109559,1.63663 -0.662473,1.63663 -2.701114,0 -7.54685,4.41872 -6.84668,6.24334 0.254655,0.66362 0.873856,0.57207 2.802291,-0.41433 0.939538,-0.48058 2.382938,-0.97712 3.207556,-1.10342 l 1.499306,-0.22965 v 5.70086 c 0,6.25297 -0.199159,7.14455 -2.072536,9.27821 -2.122063,2.4169 -1.127455,3.11311 1.936682,1.35565 2.444326,-1.40195 4.577505,-3.9062 5.311863,-6.23585 l 0.597285,-1.89481 h 1.925207 1.925208 l -0.201972,1.95692 c -0.189824,1.83922 -1.503283,4.74173 -2.395201,5.29296 -0.205384,0.12694 -1.373805,0.4401 -2.596491,0.69592 -2.941625,0.61547 -6.251039,2.3233 -8.116041,4.1883 -1.993915,1.99391 -3.956514,6.06464 -4.470134,9.27172 -0.623006,3.89011 -0.178856,4.32382 1.388183,1.35556 0.71494,-1.35423 2.198343,-3.3805 3.296451,-4.50282 z m 20.404824,-9.10357 c -1.4552,-0.54375 -3.55864,-1.10031 -4.6743,-1.23682 -1.11566,-0.1365 -2.028473,-0.35422 -2.028473,-0.48381 0,-0.12958 0.653833,-0.86314 1.452963,-1.63012 0.79912,-0.76698 1.91025,-2.34701 2.46916,-3.51118 0.8458,-1.76173 1.01626,-2.56788 1.01649,-4.8075 3.8e-4,-3.67549 -0.027,-3.65917 6.13944,-3.65917 2.73533,0 5.25115,0.11408 5.5907,0.25351 0.55274,0.22698 0.61736,0.8622 0.61736,6.06891 v 5.8154 l -1.63392,0.72276 c -0.89866,0.39752 -2.56374,1.35745 -3.70018,2.13317 -1.13644,0.77573 -2.18711,1.39086 -2.33483,1.36694 -0.14771,-0.0239 -1.4592,-0.48835 -2.91441,-1.03209 z m 7.67292,-3.47549 1.49931,-0.75495 v -4.71758 c 0,-3.97639 -0.0877,-4.75123 -0.55802,-4.93172 -0.70435,-0.27029 -6.77304,-0.27257 -7.77783,-0.003 -0.64444,0.17294 -0.78625,0.55811 -0.99847,2.71181 -0.28742,2.91682 -1.15947,5.42631 -2.49339,7.17516 -0.51895,0.68038 -0.88783,1.26835 -0.81972,1.30661 0.0681,0.0383 1.55257,0.54473 3.29882,1.12549 l 3.175,1.05593 1.5875,-1.10643 c 0.87312,-0.60854 2.26218,-1.44616 3.0868,-1.86139 z M 95.255406,144.63889 c 0.003,-5.38427 0.145653,-10.01108 0.317071,-10.2818 0.221947,-0.35051 0.736557,-0.43522 1.787621,-0.29424 0.811775,0.10888 1.50253,0.251 1.535013,0.31582 0.03248,0.0648 0.0123,4.60254 -0.04485,10.08383 l -0.103913,9.96597 h -1.74817 -1.74817 z m 2.111264,-0.44098 c 0,-5.64444 -0.127,-8.81944 -0.352777,-8.81944 -0.225778,0 -0.352778,3.175 -0.352778,8.81944 0,5.64445 0.127,8.81945 0.352778,8.81945 0.225777,0 0.352777,-3.175 0.352777,-8.81945 z m 7.05556,0.37838 v -3.93045 l 1.85208,0.27673 c 2.35779,0.3523 7.05175,0.35646 8.99583,0.008 l 1.49931,-0.26875 v 3.70833 c 0,2.7373 -0.11547,3.70549 -0.44097,3.69745 -0.24254,-0.006 -1.59372,-0.16062 -3.00263,-0.34361 -2.41815,-0.31408 -6.80304,-0.0233 -8.29767,0.55024 -0.55041,0.21121 -0.60595,-0.12775 -0.60595,-3.69792 z m 10.93611,-0.19433 v -1.77155 h -4.58611 -4.58612 v 1.78669 1.78669 l 4.58612,-0.0151 4.58611,-0.0151 z m -8.81945,-6.27922 -1.94028,-0.43121 0.0924,-2.29306 c 0.1261,-3.13103 0.6716,-5.30849 1.63145,-6.51226 0.68221,-0.85557 1.31014,-1.11235 4.09687,-1.67534 l 3.29117,-0.6649 1.5295,1.50109 1.5295,1.50109 v 4.11874 c 0,3.97 -0.0287,4.12679 -0.79375,4.34182 -1.65453,0.46502 -7.53765,0.5361 -9.43681,0.11403 z m 6.65103,-1.18702 2.16842,-0.22665 v -3.19614 c 0,-3.07945 -0.039,-3.23635 -1.06737,-4.29739 l -1.06737,-1.10124 -2.71938,0.57952 c -2.45193,0.52253 -2.78738,0.69597 -3.41089,1.76356 -0.5026,0.86057 -0.69689,1.86591 -0.71117,3.67993 l -0.0197,2.49588 1.41111,0.21453 c 2.11672,0.32179 3.03654,0.33673 5.41631,0.088 z m -13.905452,-4.74798 c -0.375691,-0.1471 -1.119638,-0.27861 -1.653214,-0.29225 -0.533577,-0.0136 -0.970139,-0.11205 -0.970139,-0.2187 0,-0.52316 1.104909,-2.20131 1.996977,-3.03304 0.930699,-0.86774 1.15551,-0.91771 3.174458,-0.70555 l 2.17282,0.22833 -2.01891,2.14433 c -1.60738,1.70723 -2.158155,2.08982 -2.701992,1.87688 z m 1.091502,-2.71701 c -0.23704,-0.23704 -1.245411,0.64284 -1.245411,1.08672 0,0.20035 0.318473,0.076 0.707719,-0.27621 0.389242,-0.35227 0.631202,-0.71699 0.537692,-0.81051 z m -4.617933,33.11498 c 0.609075,-0.67302 1.563024,-2.9578 1.593149,-3.81571 0.0085,-0.24254 -0.289402,-0.44098 -0.662041,-0.44098 -0.46428,0 -0.749877,0.32942 -0.907401,1.04662 -0.126432,0.57564 -0.615295,1.61457 -1.086364,2.30872 -0.471068,0.69416 -0.856487,1.33443 -0.856487,1.42283 0,0.44836 1.381065,0.0731 1.919144,-0.52148 z"
         id="path3" /><path
         style="fill:#041640"
         d="m 80.938029,181.47873 c -0.135803,-0.35353 -0.06442,-1.78228 0.158623,-3.175 0.51362,-3.20708 2.476219,-7.27781 4.470134,-9.27172 1.865002,-1.865 5.174416,-3.57283 8.116041,-4.1883 1.222686,-0.25582 2.391107,-0.56898 2.596491,-0.69592 0.891918,-0.55123 2.205377,-3.45374 2.395201,-5.29296 l 0.201972,-1.95692 h -1.925208 -1.925207 l -0.597285,1.89481 c -0.734358,2.32965 -2.867537,4.8339 -5.311863,6.23585 -3.064137,1.75746 -4.058745,1.06125 -1.936682,-1.35565 1.873377,-2.13366 2.072536,-3.02524 2.072536,-9.27821 v -5.70086 l -1.499306,0.22965 c -0.824618,0.1263 -2.268018,0.62284 -3.207556,1.10342 -1.928435,0.9864 -2.547636,1.07795 -2.802291,0.41433 -0.70017,-1.82462 4.145566,-6.24334 6.84668,-6.24334 0.552914,0 0.662473,-0.27066 0.662473,-1.63663 v -1.63664 l -1.739762,0.20605 c -0.956869,0.11332 -2.379294,0.53231 -3.160946,0.93108 -2.016407,1.02869 -2.860403,0.96226 -2.860403,-0.22514 0,-1.56719 3.335825,-4.52516 5.979282,-5.30199 1.682709,-0.49449 2.135369,-0.77611 2.141865,-1.33256 0.01724,-1.47673 1.498112,-3.88573 3.691048,-6.0044 l 2.27658,-2.19948 -2.193693,-0.78764 c -3.25621,-1.16913 -5.703085,-2.66848 -8.263224,-5.06336 -2.781286,-2.60176 -5.228298,-6.58262 -4.046298,-6.58262 0.160113,0 1.231676,0.73767 2.38125,1.63926 2.780813,2.18094 7.804664,4.52802 11.159289,5.21347 5.69734,1.16414 12.35105,0.4195 18.60326,-2.08197 1.78982,-0.71609 3.2865,-1.24902 3.32594,-1.18429 2.61949,4.29889 6.06664,8.04454 8.53669,9.2759 0.76295,0.38034 1.45498,0.73918 1.53785,0.79743 0.0829,0.0582 -0.31401,0.59078 -0.88195,1.18342 l -1.03261,1.07752 -0.10494,15.41116 c -0.0577,8.47613 -0.0142,15.90932 0.0968,16.51818 0.11094,0.60887 0.73711,1.80823 1.3915,2.66526 l 1.1898,1.55823 -2.46766,0.63568 c -3.83987,0.98917 -7.73619,3.11644 -10.28229,5.6138 -1.22147,1.19809 -2.46055,2.56551 -2.75351,3.03872 l -0.53266,0.86039 -2.52075,-1.6758 c -1.38642,-0.92169 -3.83412,-2.17138 -5.43934,-2.77709 -2.65461,-1.00168 -3.301488,-1.10343 -7.151922,-1.12487 -3.902204,-0.0217 -4.394495,0.0519 -6.293717,0.94166 -2.657907,1.24516 -5.670978,4.32184 -7.353396,7.50865 -1.020267,1.93257 -1.353006,2.32396 -1.546806,1.81944 z m 30.497321,-15.76068 c 1.13644,-0.77572 2.80152,-1.73565 3.70018,-2.13317 l 1.63392,-0.72276 v -5.8154 c 0,-5.20671 -0.0646,-5.84193 -0.61736,-6.06891 -0.33955,-0.13943 -2.85537,-0.25351 -5.5907,-0.25351 -6.16645,0 -6.13906,-0.0163 -6.13944,3.65917 -2.3e-4,2.23962 -0.17069,3.04577 -1.01649,4.8075 -0.55891,1.16417 -1.67004,2.7442 -2.46916,3.51118 -0.79913,0.76698 -1.452963,1.50054 -1.452963,1.63012 0,0.12959 0.912813,0.34731 2.028473,0.48381 1.11566,0.13651 3.2191,0.69307 4.6743,1.23682 1.45521,0.54374 2.7667,1.00818 2.91441,1.03209 0.14772,0.0239 1.19839,-0.59121 2.33483,-1.36694 z M 98.850257,144.4625 c 0.05715,-5.48129 0.07734,-10.01901 0.04485,-10.08383 -0.03248,-0.0648 -0.723238,-0.20694 -1.535013,-0.31582 -1.051064,-0.14098 -1.565674,-0.0563 -1.787621,0.29424 -0.171418,0.27072 -0.3141,4.89753 -0.317071,10.2818 l -0.0054,9.78958 h 1.74817 1.74817 z m 9.348913,3.25397 c 1.58356,-0.20078 3.54519,-0.19791 5.12668,0.008 1.40891,0.18299 2.76009,0.33762 3.00263,0.34361 0.3255,0.008 0.44097,-0.96015 0.44097,-3.69745 v -3.70833 l -1.49931,0.26875 c -1.94408,0.34848 -6.63804,0.34432 -8.99583,-0.008 l -1.85208,-0.27673 v 3.93045 c 0,3.57017 0.0555,3.90913 0.60595,3.69792 0.33328,-0.12789 1.76022,-0.37888 3.17099,-0.55774 z m 7.77653,-9.72776 c 0.76508,-0.21503 0.79375,-0.37182 0.79375,-4.34182 v -4.11874 l -1.5295,-1.50109 -1.5295,-1.50109 -3.29117,0.6649 c -2.78673,0.56299 -3.41466,0.81977 -4.09687,1.67534 -0.95985,1.20377 -1.50535,3.38123 -1.63145,6.51226 l -0.0924,2.29306 1.94028,0.43121 c 1.89916,0.42207 7.78228,0.35099 9.43681,-0.11403 z M 101.83255,127.9182 c -2.018948,-0.21216 -2.243759,-0.16219 -3.174458,0.70555 -0.892068,0.83173 -1.996977,2.50988 -1.996977,3.03304 0,0.10665 0.436562,0.20506 0.970139,0.2187 0.533576,0.0136 1.277523,0.14515 1.653214,0.29225 0.543837,0.21294 1.094612,-0.16965 2.701992,-1.87688 l 2.01891,-2.14433 z"
         id="path1" /></g></g></svg>
