<?xml version="1.0" encoding="UTF-8" standalone="no"?>
<!-- Generator: Adobe Illustrator 21.1.0, SVG Export Plug-In . SVG Version: 6.00 Build 0)  -->

<svg
   version="1.1"
   id="svg2"
   inkscape:output_extension="org.inkscape.output.svg.inkscape"
   inkscape:version="1.4 (86a8ad7, 2024-10-11)"
   sodipodi:docname="LAD_3.svg"
   sodipodi:version="0.32"
   x="0px"
   y="0px"
   width="300px"
   height="415.3px"
   viewBox="0 0 300 415.3"
   style="enable-background:new 0 0 300 415.3;"
   xml:space="preserve"
   xmlns:inkscape="http://www.inkscape.org/namespaces/inkscape"
   xmlns:sodipodi="http://sodipodi.sourceforge.net/DTD/sodipodi-0.dtd"
   xmlns="http://www.w3.org/2000/svg"
   xmlns:svg="http://www.w3.org/2000/svg"><defs
   id="defs2" />
<style
   type="text/css"
   id="style1">
	.st0{fill:#C6CBCE;}
	.st1{fill:#FFFFFF;}
	.st2{fill:#083884;}
</style>
<sodipodi:namedview
   bordercolor="#666666"
   borderopacity="1.0"
   gridtolerance="10.0"
   guidetolerance="10.0"
   id="base"
   inkscape:current-layer="g2"
   inkscape:cx="271.16888"
   inkscape:cy="360.14617"
   inkscape:pageopacity="0.0"
   inkscape:pageshadow="2"
   inkscape:window-height="1211"
   inkscape:window-width="1147"
   inkscape:window-x="1558"
   inkscape:window-y="46"
   inkscape:zoom="1.0620688"
   objecttolerance="10.0"
   pagecolor="#ffffff"
   inkscape:showpageshadow="2"
   inkscape:pagecheckerboard="0"
   inkscape:deskcolor="#d1d1d1"
   showgrid="false"
   inkscape:window-maximized="0">
	</sodipodi:namedview>
<g
   id="g2">
	
	<path
   class="st1"
   d="M171.1,404.9v-54.5h25.9l-8.5-37L134,313l-8.6,37.3l25.5,0v54.5h-112v-54.3l31-0.5l8-37.3L10.5,313v-53.1h27.6   V62.7H12.2l-0.7-52.3l108.8,0v52.3H91.9v188.9l35.6-148.2l67.2-0.3L232,258.1h0l0.4-53.4H289l0.5,108.3h-44.1l8.4,37.1l30,0.4v54.3   H171.1z M146.8,258.4c3.7,0,8.2,0,13.3,0c5.8,0,11,0,15.2-0.1l-14.1-60.9L146.8,258.4z"
   id="path2" />
	<path
   id="path2161"
   sodipodi:nodetypes="ccccccccccccccccccccccccccccccccccccccc"
   class="st2"
   d="M49.3,360.8l29-0.5l12.5-58.2   l-70,0.4v-32.1h27.6V52.3H22.5L22,20.9l87.8,0v31.4H81.4v216.6h17.1l37.3-155l50.8-0.3l37.2,154.9h18.6l0.4-53.4h35.8l0.4,87.4   l-46.7,0l13.2,57.9l27.9,0.4v33.6h-91.9v-33.6h28.6l-13.3-57.9l-71-0.4l-13.4,58.3l28.1,0v33.6H49.3V360.8z M188.4,268.5   l-27.1-116.8l-27.6,116.9C133.7,269,187.9,269,188.4,268.5z" />
</g>
</svg>
