<?xml version="1.0" encoding="UTF-8" standalone="no"?>
<!-- Generator: Adobe Illustrator 21.1.0, SVG Export Plug-In . SVG Version: 6.00 Build 0)  -->

<svg
   version="1.1"
   id="svg2"
   inkscape:output_extension="org.inkscape.output.svg.inkscape"
   inkscape:version="1.4 (86a8ad7, 2024-10-11)"
   sodipodi:docname="LAD_4.svg"
   sodipodi:version="0.32"
   x="0px"
   y="0px"
   width="279"
   height="394.5"
   viewBox="0 0 279 394.50001"
   xml:space="preserve"
   xmlns:inkscape="http://www.inkscape.org/namespaces/inkscape"
   xmlns:sodipodi="http://sodipodi.sourceforge.net/DTD/sodipodi-0.dtd"
   xmlns="http://www.w3.org/2000/svg"
   xmlns:svg="http://www.w3.org/2000/svg"><defs
   id="defs2" />
<style
   type="text/css"
   id="style1">
	.st0{fill:#C6CBCE;}
	.st1{fill:#FFFFFF;}
	.st2{fill:#083884;}
</style>
<sodipodi:namedview
   bordercolor="#666666"
   borderopacity="1.0"
   gridtolerance="10.0"
   guidetolerance="10.0"
   id="base"
   inkscape:current-layer="g2"
   inkscape:cx="261.28251"
   inkscape:cy="349.78902"
   inkscape:pageopacity="0.0"
   inkscape:pageshadow="2"
   inkscape:window-height="1377"
   inkscape:window-width="3440"
   inkscape:window-x="-8"
   inkscape:window-y="-8"
   inkscape:zoom="1.0620688"
   objecttolerance="10.0"
   pagecolor="#ffffff"
   inkscape:showpageshadow="2"
   inkscape:pagecheckerboard="0"
   inkscape:deskcolor="#d1d1d1"
   showgrid="false"
   inkscape:window-maximized="1">
	</sodipodi:namedview>
<g
   id="g2"
   transform="translate(-10.5,-10.4)">
	
	<path
   class="st1"
   d="M 171.1,404.9 V 350.4 H 197 l -8.5,-37 -54.5,-0.4 -8.6,37.3 h 25.5 v 54.5 h -112 v -54.3 l 31,-0.5 8,-37.3 -67.4,0.3 V 259.9 H 38.1 V 62.7 H 12.2 L 11.5,10.4 H 120.3 V 62.7 H 91.9 v 188.9 l 35.6,-148.2 67.2,-0.3 37.3,155 v 0 l 0.4,-53.4 H 289 l 0.5,108.3 h -44.1 l 8.4,37.1 30,0.4 v 54.3 H 171.1 Z M 146.8,258.4 c 3.7,0 8.2,0 13.3,0 5.8,0 11,0 15.2,-0.1 l -14.1,-60.9 z"
   id="path2"
   style="fill:#003688;fill-opacity:1" />
	<path
   id="path2161"
   sodipodi:nodetypes="ccccccccccccccccccccccccccccccccccccccc"
   class="st2"
   d="m 49.3,360.8 29,-0.5 12.5,-58.2 -70,0.4 V 270.4 H 48.4 V 52.3 H 22.5 L 22,20.9 h 87.8 V 52.3 H 81.4 v 216.6 h 17.1 l 37.3,-155 50.8,-0.3 37.2,154.9 h 18.6 l 0.4,-53.4 h 35.8 l 0.4,87.4 h -46.7 l 13.2,57.9 27.9,0.4 v 33.6 h -91.9 v -33.6 h 28.6 l -13.3,-57.9 -71,-0.4 -13.4,58.3 h 28.1 v 33.6 H 49.3 Z M 188.4,268.5 161.3,151.7 133.7,268.6 c 0,0.4 54.2,0.4 54.7,-0.1 z"
   style="fill:#ffffff" />
</g>
</svg>
