<svg xmlns="http://www.w3.org/2000/svg" viewBox="0 0 281.098 146.989"><title>New York Mets primary dark logo</title><path d="M268.916 62.33c-1.923-5.768-4.106-12.278-3.794-18.01.01-.08.01-.145.01-.213l.167-2.667-2.485-.944-9.826-3.71-1.007-.38-2.145-.81-.578 1.256-.817 1.81c-2.777 6.09-9.454 17.367-14.788 25.9-11.42 18.275-15.748 22.907-17.31 24.052-.344.245-.555.345-.666.356-.885.166-1.857-.1-2.535-.678-.644-.545-.994-1.366-.956-2.233.394-3.857 11.065-41.02 13.815-50.408l31.236-5.132 3.05-11.277 1.412-5.233-26.02 4.222-5.212.833L235.585 0 211.87 3.6s-4.09 13.977-5.683 19.354l-14.12 2.31-5.084 16.844 5.417-.922 9.15-1.545-1.496 5.29c-4.21 14.788-9.32 31.92-10.876 34.83-1.19 2.2-6.266 7.943-12.5 13.132-6.95 5.766-15.376 10.8-21.52 9.41-.228-.044-.405-.11-.583-.155 6.932-3.767 22.58-13.52 25.18-25.754 1.245-5.877.195-10.42-1.827-13.776-2.75-4.6-7.305-7.033-10.294-7.667-14.537-2-23.698 7.977-26.88 12.21-6.628 7.59-12.472 20.533-13.95 30.587-.172.878-.243 1.845-.24 2.834-21.753 14.6-19.758 6.3-18.814-4.2 1.106-12.775 8.294-40.173 20.237-77.136.312-.978 2.3-7.41 2.3-7.41l-25.93 4.277-.573 2.29c-1.405 5.51-14.926 36.03-25.376 59.217 1.84-16.688 4.778-39.297 8.455-53.43l1.383-5.32-27.403 4.377-.684 2.578c-.806 3.09-2.3 8.866-9.416 29.064-2.178 6.176-11.75 33.93-12.32 35.553-5.672 14.386-12.095 30.652-18.1 31.218-1.222.11-2.06-.222-2.494-1.044-.72-1.345-.29-5.332 3.34-12.12l3.843-7.167-15.816 3.99-.77 1.254c-8.223 13.334-10.562 25.366-6.423 33.01 2.572 4.72 7.35 7.42 13.116 7.41h.555c9.66-.344 19.41-7.832 26.086-20.043 2.824-5.155 7.368-16.176 11.378-26.398-.716 12.12-1.99 24.953-5.91 35.875l-1.89 5.277 19.783-1.71 18.438-37.687c-1.99 13.677-.25 22.077 5.155 26.164 2.8 2.11 6.266 3.122 10.31 2.988 8.344-.29 17.45-5.465 23.655-9.766l9.743-6.932c3.907 4.266 9.106 7.01 15.033 7.832 1.155.144 2.388.245 3.71.245 9.145 0 22.26-4.377 38.487-21.476.86 1.924 2.06 3.834 3.25 5.078.51.545 1.066 1.044 1.66 1.522 2.773 2.156 6.328 3.344 10.56 3.478 10.833.344 23.31-6.644 27.86-15.444 4.893 5.145 12.682 7.355 18.91 6.833 5.148-.422 14.542-2.833 19.48-14.165 3.583-8.234.517-17.434-2.454-26.333zm-107.36 11.687c2.19 1.578-3.47 8.966-9.098 10.677 1.055-6.078 7.3-11.978 9.1-10.677zm84.017 11.943c-2.644-1.156-1.472-5.577 5.095-9.42l-5.983-2.945c1.56-2.544 3.077-5.422 4.338-8.89 2.733 6.523 3.988 24.433-3.45 21.255z" fill="#FF5910"/><path d="M265.438 63.55c-2.156-6.466-4.36-13.3-3.956-19.62l-9.816-3.71c-3.1 6.844-10.416 18.965-15.015 26.32-15.753 25.197-18.658 25.72-20.386 26.053-1.944.356-4.01-.222-5.516-1.5-1.484-1.277-2.29-3.132-2.217-5.11.118-3.8 14.578-53.462 14.623-53.462l31.17-5.11 2.455-8.887-31.27 5.066 5.128-19.078-15.998 2.378s-5.667 19.32-5.688 19.32l-14.122 2.323-2.67 9.065 14.332-2.388s-11.31 40.952-14.194 46.33c-2.422 4.488-23.56 27.62-37.98 24.364-5.944-1.355-4.617-5.255-4.617-5.255s23.53-11.022 26.474-24.92c2.578-12.29-7.466-17.066-10.182-17.278-11.305-1.31-20.26 8.122-22.465 11.066-6.588 7.577-12.32 20.82-13.37 29.953-.05.88-.024 1.89.1 2.9-29.098 19.533-27 5.878-26.088-6.298 1.92-22.12 20.12-76.927 20.98-79.75l-17.887 2.956c-2.366 9.31-34.547 79.582-34.547 79.582s4.15-50.496 10.676-75.583l-19.665 3.145C62.944 29.39 61.555 35 54.14 56.076c-2.262 6.4-12.344 35.62-12.344 35.62-8.033 20.375-13.483 32.83-21.137 33.53-3.795.378-5.456-1.923-5.995-2.91-2.01-3.734.555-10.31 3.34-15.5l-6.518 1.644c-7.444 12.066-9.816 22.954-6.327 29.41 1.944 3.587 5.477 5.543 9.95 5.52 6.693-.01 16.242-4.866 23.49-18.164 5.857-10.666 19.583-48.018 19.583-48.018-1.705 15.843-.6 41.018-7.577 60.44l12.177-1.056L95.798 69.12c-10.378 31.574-12.405 50.796-4.917 56.484 6.64 5 18.06 1.255 29.715-6.844l12.477-8.866c8.583 12.5 30.148 17.354 58.962-16.454-.35 3.933.906 6.667.906 6.667 2.123 4.99 6.25 7.62 12.244 7.8 9.47.3 20.738-5.923 24.576-13.588l3.133-4.957c2.905 6.89 11.543 10.52 18.648 9.955 4.356-.378 12.283-2.41 16.483-12.032 3.03-6.97.303-15.125-2.585-23.735zM163.84 71.118c4.11 2.655 1.873 7.877-2.806 12.21-3.427 3.144-8.315 5.844-12.86 7.455-1.087-9.755 8.634-24.21 15.666-19.665zm87.732 17.566c-1.005.89-3.754 2.766-7.8.567-2.06-1.1-3.31-3.156-3.344-5.455-.022-1.433.317-4.044 2.928-6.6l-3.923-2.056c1.695-2.79 9.638-17.077 10.666-19.91l2.277 8.12c2.156 5.18 4.567 20.466-.805 25.333z" fill="#002D72"/><path fill="#FF5910" d="M279.13 96.393l-1.344 3.655h-.027l-1.302-3.655h-1.988v5.588h1.15v-4.443h.023l1.566 4.444h1.104l1.622-4.443h.023v4.444h1.138v-5.587M268.937 97.393h1.684v4.588h1.144v-4.587h1.684v-1h-4.51"/></svg>