<?xml version="1.0" encoding="UTF-8" standalone="no"?>
<!-- Generator: Adobe Illustrator 21.1.0, SVG Export Plug-In . SVG Version: 6.00 Build 0)  -->

<svg
   version="1.1"
   id="Layer_1"
   x="0px"
   y="0px"
   width="314.54874"
   height="359.24893"
   viewBox="0 0 314.54874 359.24893"
   xml:space="preserve"
   sodipodi:docname="NYY_4.svg"
   inkscape:version="1.4 (86a8ad7, 2024-10-11)"
   xmlns:inkscape="http://www.inkscape.org/namespaces/inkscape"
   xmlns:sodipodi="http://sodipodi.sourceforge.net/DTD/sodipodi-0.dtd"
   xmlns="http://www.w3.org/2000/svg"
   xmlns:svg="http://www.w3.org/2000/svg"><defs
   id="defs1" /><sodipodi:namedview
   id="namedview1"
   pagecolor="#ffffff"
   bordercolor="#000000"
   borderopacity="0.25"
   inkscape:showpageshadow="2"
   inkscape:pageopacity="0.0"
   inkscape:pagecheckerboard="0"
   inkscape:deskcolor="#d1d1d1"
   inkscape:zoom="2.3978368"
   inkscape:cx="251.26814"
   inkscape:cy="206.64459"
   inkscape:window-width="3440"
   inkscape:window-height="1377"
   inkscape:window-x="-8"
   inkscape:window-y="-8"
   inkscape:window-maximized="1"
   inkscape:current-layer="Layer_1" />
<style
   type="text/css"
   id="style1">
	.st0{fill:#FFFFFF;stroke:#FFFFFF;}
</style>

<g
   id="g2"
   style="fill:#162d50"
   transform="translate(42.69156,34.799498)">
	<path
   id="path2"
   style="fill:#162d50"
   class="st0"
   sodipodi:type="inkscape:offset"
   inkscape:radius="6.7246089"
   inkscape:original="M 204.40039 1.1992188 C 204.80039 15.399219 170.69922 109.19922 151.19922 146.19922 C 125.69922 99.299219 101.09922 21.800391 94.199219 1.9003906 C 87.599219 9.6003906 64.200391 32.400781 52.900391 43.800781 C 76.000391 67.400781 120.39961 143.30039 124.09961 168.90039 C 61.899609 112.80039 61.099609 100 34.099609 63 C 30.399609 65.8 5.2003906 93.100391 0.40039062 92.900391 C 11.600391 109.80039 38.600391 128.10039 37.900391 197.40039 C 37.600391 235.40039 17.199219 275.99961 5.6992188 294.09961 C 5.0992187 295.09961 36.4 332.40078 39.5 336.80078 C 77 273.50078 76.2 189.59961 71 162.59961 C 75.3 167.19961 124.69922 211.99961 134.69922 221.59961 L 135.5 301.90039 C 135.3 309.70039 132.69922 334.6 124.19922 346 C 149.49922 345.3 154.39922 345.30078 179.69922 345.30078 C 168.19922 332.80078 167.6 306.30039 167 303.40039 L 164.69922 252.90039 C 176.79922 263.80039 245.59922 325.9 263.69922 342.5 C 275.09922 329 281.09922 329.70078 289.19922 319.80078 C 271.19922 293.50078 260 264.3 261.5 197.5 C 262.5 151 287.8 106.50039 300.5 89.400391 C 288.2 76.900391 276.49922 67.199609 272.69922 63.099609 C 248.69922 88.699609 214.19922 159.80039 230.69922 266.40039 C 222.39922 258.60039 177.30039 216.3 163.90039 206 C 163.90039 206 160.29961 199 164.59961 187.5 C 179.59961 147.7 220.90039 63.099609 244.90039 44.599609 C 232.60039 33.899609 215.50039 11.499219 204.40039 1.1992188 z "
   d="m 204.16992,-5.5195312 a 6.7252814,6.7252814 0 0 0 -6.49219,6.9082031 c 0.009,0.326694 -0.31701,3.2991178 -1.19726,7.0722656 -0.88025,3.7731475 -2.22287,8.6391685 -3.91797,14.2324215 -3.39019,11.186506 -8.19172,25.311418 -13.61523,40.146485 C 170.15423,86.89163 159.76279,112.51138 151.08984,131.02344 128.3664,84.819894 107.03134,18.381929 100.55273,-0.30273438 A 6.7252814,6.7252814 0 0 0 89.09375,-2.4765625 C 83.335921,4.2409052 59.536495,27.553924 48.125,39.066406 a 6.7252814,6.7252814 0 0 0 -0.0293,9.4375 c 10.53574,10.763786 27.571519,35.622888 41.849609,60.449224 7.250323,12.60665 13.816598,25.4974 18.751958,36.48632 C 66.460894,104.98272 63.597139,92.014338 39.53125,59.035156 a 6.7252814,6.7252814 0 0 0 -9.490234,-1.396484 c -2.189127,1.656636 -3.867102,3.51352 -6.841797,6.480469 -2.974696,2.966949 -6.598663,6.613275 -10.222656,10.132812 -3.6239939,3.519538 -7.2689563,6.923738 -10.1074224,9.285156 -1.419233,1.180709 -2.65651977,2.103035 -3.39648435,2.572266 -0.73996455,0.469231 -1.49417845,-0.04028 1.20703125,0.07227 a 6.7252814,6.7252814 0 0 0 -5.8847656,10.433593 c 6.3571528,9.592486 15.3272651,17.660356 22.8652341,32.011716 7.53797,14.35136 13.856745,34.93425 13.515625,68.70508 a 6.7252814,6.7252814 0 0 0 0,0.0156 c -0.281299,35.63119 -20.162752,75.84982 -31.1523435,93.14648 a 6.7252814,6.7252814 0 0 0 -0.08984375,0.14648 c -1.43191095,2.38652 -1.00341275,3.91778 -0.85742188,4.72657 0.14599087,0.80878 0.31705882,1.19796 0.45117188,1.51953 0.26822613,0.64314 0.45935193,0.94582 0.6484375,1.26172 0.37817113,0.6318 0.74960824,1.16742 1.20703125,1.80664 0.914846,1.27843 2.132941,2.87129 3.6113281,4.76172 2.9567743,3.78086 6.9231764,8.69077 11.0019534,13.70312 4.078777,5.01235 8.264729,10.12028 11.613281,14.23633 3.348552,4.11605 6.109784,7.61619 6.392578,8.01758 a 6.7252814,6.7252814 0 0 0 11.283203,-0.44531 c 19.424741,-32.78897 28.739153,-70.43014 32.654297,-103.34571 2.641796,-22.21022 2.745522,-41.74669 1.734375,-56.88672 4.956215,4.58003 10.474084,9.66028 16.492188,15.1836 13.289704,12.19708 26.232184,24.0787 31.837894,29.38867 l 0.76953,77.20898 c -0.0889,3.35515 -0.76506,11.3579 -2.4043,19.49414 -1.64428,8.16127 -4.51649,16.62637 -7.56055,20.70899 a 6.7252814,6.7252814 0 0 0 5.57618,10.74219 c 25.27586,-0.69934 30.01431,-0.69727 55.31445,-0.69727 a 6.7252814,6.7252814 0 0 0 4.94922,-11.27734 c -4.18625,-4.55027 -7.23173,-13.29118 -8.78516,-21.28125 -0.77671,-3.99504 -1.24604,-7.7723 -1.55469,-10.74805 -0.30864,-2.97575 -0.20596,-4.18427 -0.72265,-6.68164 l 0.13086,1.05664 -1.56641,-34.38086 c 21.30268,19.21693 71.17698,64.22688 87.00391,78.74219 a 6.7252814,6.7252814 0 0 0 9.68359,-0.61719 c 5.28779,-6.26186 8.86332,-8.84459 12.69922,-11.52344 3.8359,-2.67885 8.25264,-5.61586 12.86719,-11.25586 a 6.7252814,6.7252814 0 0 0 0.34375,-8.05664 C 277.32409,290.54362 266.74051,263.65539 268.22266,197.65039 a 6.7252814,6.7252814 0 0 0 0,-0.006 c 0.94956,-44.15471 25.75649,-88.18557 37.67578,-104.234374 a 6.7252814,6.7252814 0 0 0 -0.60547,-8.726562 C 292.71753,71.903674 280.34741,61.460316 277.63086,58.529297 A 6.7252814,6.7252814 0 0 0 267.79297,58.5 c -24.52826,26.163474 -56.49126,92.168 -46.13281,190.31836 -5.97131,-5.57327 -9.94366,-9.33199 -17.90039,-16.63477 -13.24205,-12.15368 -26.40176,-23.98677 -34.05079,-30.06445 -0.10749,-0.26334 -0.21552,-0.27759 -0.39062,-1.81641 -0.25261,-2.21999 -0.19673,-5.6924 1.58008,-10.44531 2.6e-4,-7.1e-4 -2.7e-4,-0.001 0,-0.002 7.33764,-19.46632 21.35686,-50.46758 36.40625,-78.62305 15.05291,-28.162049 32.14949,-53.943883 41.70117,-61.306639 a 6.7252814,6.7252814 0 0 0 0.30859,-10.40039 C 238.19232,29.850039 221.11385,7.5338727 208.97461,-3.7304688 a 6.7252814,6.7252814 0 0 0 -4.80469,-1.7890624 z"
   transform="translate(-35.86566,-28.775936)" />
</g><g
   id="g1"
   style="fill:#ffffff"
   transform="translate(6.9046454,5.2508592)">
	<path
   class="st0"
   d="m 0.4,92.9 c 4.8,0.2 30,-27.1 33.7,-29.9 27,37 27.8,49.8 90,105.9 C 120.4,143.3 76,67.4 52.9,43.8 64.2,32.4 87.6,9.6 94.2,1.9 c 6.9,19.9 31.5,97.4 57,144.3 v 0 c 19.5,-37 53.6,-130.8 53.2,-145 11.1,10.3 28.2,32.7 40.5,43.4 -24,18.5 -65.3,103.1 -80.3,142.9 -4.3,11.5 -0.7,18.5 -0.7,18.5 13.4,10.3 58.5,52.6 66.8,60.4 -16.5,-106.6 18,-177.7 42,-203.3 3.8,4.1 15.5,13.8 27.8,26.3 -12.7,17.1 -38,61.6 -39,108.1 -1.5,66.8 9.7,96 27.7,122.3 -8.1,9.9 -14.1,9.2 -25.5,22.7 -18.1,-16.6 -86.9,-78.7 -99,-89.6 v 0 l 2.3,50.5 c 0.6,2.9 1.2,29.4 12.7,41.9 -25.3,0 -30.2,0 -55.5,0.7 8.5,-11.4 11.1,-36.3 11.3,-44.1 l -0.8,-80.3 C 124.7,212 75.3,167.2 71,162.6 v 0 c 5.2,27 6,110.9 -31.5,174.2 C 36.4,332.4 5.1,295.1 5.7,294.1 17.2,276 37.6,235.4 37.9,197.4 38.6,128.1 11.6,109.8 0.4,92.9"
   id="path1"
   style="fill:#ffffff" />
</g></svg>
