<svg xmlns="http://www.w3.org/2000/svg" viewBox="0 0 300 300"><defs><style>.cls-1{fill:none;}.cls-2{fill:#011e41;}.cls-3{fill:#c10230;}</style></defs><title>washington-nationals</title><g id="Layer_2" data-name="Layer 2"><g id="Layer_31" data-name="Layer 31"><rect class="cls-1" width="300" height="300"/><path class="cls-2" d="M246.62,216.9h-2.15v5.86H243V216.9h-2.14v-1.26h5.75v1.26m9.76,5.86h-1.44V217.1h0l-2.1,5.66h-1.38l-2-5.66h-.06v5.66H248v-7.12h2.48l1.69,4.66h0l1.73-4.66h2.5Z"/><path class="cls-2" d="M242.9,42.34c-21.23-17-40.53,4.27-40.53,16.45,21.28,4.55,40.25,25.79,31.74,81.05-6.92,45.16-33.56,73.28-50.34,73.86,10.5-15.18,19.87-32,26-50.84,5.7-17.53,8.4-32.24,8.4-44.59,0-17-4.62-29.45-11-37.73a35.6,35.6,0,0,0-10.47-9.31A24.8,24.8,0,0,0,185.25,68c-8.73,0-17.29,3.55-24.1,9.24-10.25,8.58-18.23,21.87-23.84,37.18a148,148,0,0,0-8.73,49.69c0,13.19,1.91,26.11,6.24,37.56a65.84,65.84,0,0,0,10.75,18.86,63.52,63.52,0,0,1-8.84,7.35c-6.37,4.34-12.74,6.64-19,6.64a26.64,26.64,0,0,1-9-1.61c-4.29-1.57-7.16-4.38-9.35-9s-3.3-11.09-3.28-18.83c0-19.21,6.93-45.9,17.63-72.41C123.82,107.5,137.29,82.36,151,63.31c-3-.09-6.81-.18-9.17-.18-36.32,0-62.65,8.4-80.14,20.68s-26,28.53-26.06,43.68a36,36,0,0,0,10.67,26,19.94,19.94,0,0,0,14.36,6.32A16.17,16.17,0,0,0,77,142.58a20.19,20.19,0,0,0-5.67-13,20.62,20.62,0,0,0-7.49-5.07,32.92,32.92,0,0,1,9.1-10.16c6.2-4.69,15.13-8.71,27.17-10.88a308.67,308.67,0,0,0-18.9,39.2c-9.06,23-14,44.82-14,63.74,0,12.87,2.3,24.46,7.39,34.06a44.91,44.91,0,0,0,23.82,21.2,40.85,40.85,0,0,0,14.94,2.81h0c9.79,0,19.51-3.33,28.82-8.9a110.54,110.54,0,0,0,22-17.76c14.74,8,49,11.28,75-35.06,31.18-55.56,32.31-137.44,3.69-160.42M163.16,197.67c-10.93-21.6-9.37-53.85.15-76.47,8.14-19.34,24.29-24.07,24.29,0C187.6,147.39,174.55,178.47,163.16,197.67Z"/><path class="cls-3" d="M239.72,46.32c-6.78-5.43-13.79-6.66-20.3-3.52a23.11,23.11,0,0,0-11.21,12.34c13.13,4.4,33,18,33,59.82a170.52,170.52,0,0,1-2.11,25.66c-6.57,42.62-30.3,71.56-49.27,77.15-5.28,1.56-10.09,1.25-14.09-.7a215.89,215.89,0,0,0,29.37-55.84c21.81-63.86-5.67-88.31-19.47-88.31C140.61,71.35,113,181.2,152.26,220.68c-13.44,14.62-29.12,22.65-45.23,16.86C70.53,224.45,103.34,126.06,141.77,68c-94.33,0-116.63,57.9-92,82.07,5.45,5.71,13.9,6.53,18.88,1.79s4.63-13.23-.83-18.95a15.21,15.21,0,0,0-10.69-4.88c3.93-13.74,20.25-28,52.3-30.72-43.19,71-52.23,143-9.19,159.78,20.35,7.95,43.52-3.91,63.72-25.66,5.68,3.11,13.61,6,20.41,5.91,13.51-.2,33.22-6.4,50.47-37.11,14.37-25.63,23-58.43,23.61-90,.6-30.16-6.39-54.07-18.69-63.92m-60,53.74c24.27,0,11.22,65.58-16.64,106.77C138.9,174.39,153.25,100.06,179.75,100.06Z"/></g></g></svg>