<?xml version="1.0" encoding="UTF-8" standalone="no"?>
<svg
   fill="none"
   viewBox="0 0 673.26202 574.11902"
   version="1.1"
   id="svg4"
   sodipodi:docname="CGY_2.svg"
   width="673.26202"
   height="574.11902"
   inkscape:version="1.4 (86a8ad7, 2024-10-11)"
   xmlns:inkscape="http://www.inkscape.org/namespaces/inkscape"
   xmlns:sodipodi="http://sodipodi.sourceforge.net/DTD/sodipodi-0.dtd"
   xmlns="http://www.w3.org/2000/svg"
   xmlns:svg="http://www.w3.org/2000/svg">
  <defs
     id="defs4" />
  <sodipodi:namedview
     id="namedview4"
     pagecolor="#ffffff"
     bordercolor="#000000"
     borderopacity="0.25"
     inkscape:showpageshadow="2"
     inkscape:pageopacity="0.0"
     inkscape:pagecheckerboard="0"
     inkscape:deskcolor="#d1d1d1"
     inkscape:zoom="1.8359375"
     inkscape:cx="336.61277"
     inkscape:cy="293.31064"
     inkscape:window-width="3440"
     inkscape:window-height="1377"
     inkscape:window-x="-8"
     inkscape:window-y="-8"
     inkscape:window-maximized="1"
     inkscape:current-layer="svg4" />
  <path
     fill="#f1be48"
     d="m 667.339,232.073 c 0,0 5.923,-22.17 5.923,-51.013 C 673.262,78.423 593.216,0 477.407,0 393.967,0 323.068,61.938 284.949,61.938 c -16.266,0 -36.387,-27.839 -36.387,-27.839 0,0 -22.144,14.882 -6.146,48.721 0,0 -26.218,-21.29 -66.033,-21.29 -58.327,0 -76.878,46.692 -76.878,46.692 -44.368,15.537 -41.097,40.365 -76.989,43.2 0,0 3.97,39.245 52.418,40.743 C 56.438,226.378 0,231.481 0,231.481 c 0,0 15.992,29.954 65.498,29.954 31.95,0 54.205,-12.356 54.205,-12.356 -49.587,26.69 -17.663,63.734 -66.569,87.835 0,0 10.792,6.093 23.843,8.235 0,0 0.933,30.796 10.86,60.174 0,0 -13.722,-11.253 -40.753,-6.526 0,0 18.227,20.591 19.614,46.764 2.223,41.958 24.854,85.37 68.115,85.37 24.014,0 37.184,-11.577 37.184,-11.577 -5.855,21.872 -43.196,36.245 -43.196,36.245 0,0 19.782,18.52 49.227,18.52 45.938,0 52.478,-48.585 101.6,-48.585 37.592,0 70.069,32.446 129.778,32.446 151.029,0 237.85,-158.96 244.907,-219.908 H 493.679 c 0,0 -20.837,63.673 -67.605,63.673 -42.117,0 -64.923,-31.621 -64.923,-80.614 0,-62.07 49.93,-167.888 126.992,-167.888 28.14,0 36.08,22.995 36.08,41.679 0,20.316 -6.378,37.15 -6.378,37.15 H 667.339 Z M 39.712,159.697 c 26.705,-2.857 40.272,-39.566 84.805,-39.566 35.356,0 57.667,30.15 57.667,30.15 -54.331,-16.5 -47.348,25.926 -105.648,25.926 -27.9,0 -36.824,-16.51 -36.824,-16.51 z m 94.894,357.458 c -45.091,0 -54.747,-61.779 -54.747,-77.894 0,-8.946 -6.746,-23.455 -6.746,-23.455 28.896,9.317 30.203,59.624 72.235,59.624 23.639,0 40.141,-19.23 66.458,-9.589 -40.446,21.28 -39.394,51.314 -77.2,51.314 z M 488.55,135.985 c -81.19,0 -144.621,104.568 -144.621,185.697 0,56.864 28.224,98.09 82.459,98.09 55.734,0 79.48,-64.7 79.48,-64.7 h 127.721 c -10.548,60.723 -100.508,187.325 -224.115,187.325 -56.238,0 -88.008,-32.867 -130.056,-32.867 -56.828,0 -63.834,51.09 -101.963,51.09 -11.505,0 -19.084,-3.672 -19.084,-3.672 45.082,-21.136 18.569,-77.47 84.572,-96.274 -20.45,-11.047 -40.744,-1.072 -69.03,-1.072 -53.959,0 -84.553,-62.332 -82.395,-108.929 0,0 16.89,31.186 56.711,31.186 35.215,0 43.003,-19.934 82.417,-23.76 -8.31,-13.572 -30.448,-18.712 -49.107,-22.482 -23.252,-4.705 -34.656,-29.39 -52.663,-29.39 -19.017,0 -21.019,28.286 -47.37,26.727 0,0 12.879,-6.228 17.136,-30.74 4.236,-24.41 18.437,-42.778 44.755,-42.778 26.47,0 52.943,19.976 61.817,17.242 -38.394,-27.107 -33.55,-50.386 -65.915,-50.386 -31.554,0 -31.833,21.63 -75.955,21.63 -18.712,0 -30.695,-8.953 -30.695,-8.953 62.845,-14.72 45.297,-67.685 125.554,-67.685 40.274,0 52.955,17.699 85.876,17.699 -57.326,-40.62 -54.436,-87.313 -101.036,-87.313 -18.663,0 -31.253,12.164 -31.253,12.164 0,0 18.145,-37.861 66.148,-37.861 48.443,0 64.881,41.78 127.56,44.726 -51.708,-21.181 -53.142,-60.863 -53.142,-60.863 0,0 12.348,17.637 31.53,17.637 51.051,0 114.116,-62.355 194.02,-62.355 103.22,0 180.555,74.665 180.555,166.07 0,21.67 -3.728,34.886 -3.728,34.886 H 539.286 c 0,0 3.619,-8.726 3.619,-22.623 0,-26.95 -18.863,-57.466 -54.355,-57.466 z m -385,206.342 c 10.732,-2.385 17.125,-19.935 27.475,-19.935 11.174,0 12.092,15.91 57.45,30.932 -4.179,1.92 -18.721,14.074 -40.184,14.074 -32.445,0 -44.742,-25.071 -44.742,-25.071 z"
     id="path1" />
  <path
     fill="#c8102e"
     d="m 654.733,216.073 c 0,0 3.728,-13.217 3.728,-34.886 0,-91.405 -77.336,-166.07 -180.556,-166.07 -79.903,0 -142.968,62.355 -194.019,62.355 -19.182,0 -31.53,-17.637 -31.53,-17.637 0,0 1.434,39.681 53.141,60.863 -62.678,-2.946 -79.116,-44.726 -127.559,-44.726 -48.003,0 -66.148,37.861 -66.148,37.861 0,0 12.59,-12.164 31.253,-12.164 46.6,0 43.71,46.692 101.036,87.312 -32.92,0 -45.602,-17.698 -85.876,-17.698 -80.257,0 -62.71,52.965 -125.554,67.685 0,0 11.983,8.952 30.695,8.952 44.122,0 44.401,-21.629 75.955,-21.629 32.364,0 27.521,23.279 65.915,50.386 -8.874,2.734 -35.348,-17.242 -61.817,-17.242 -26.318,0 -40.52,18.369 -44.755,42.777 -4.257,24.513 -17.135,30.74 -17.135,30.74 26.35,1.56 28.352,-26.727 47.37,-26.727 18.006,0 29.41,24.685 52.663,29.39 18.658,3.77 40.797,8.91 49.106,22.484 -39.414,3.825 -47.202,23.759 -82.417,23.759 -39.821,0 -56.711,-31.186 -56.711,-31.186 -2.158,46.597 28.436,108.929 82.394,108.929 28.287,0 48.58,-9.975 69.03,1.071 -66.002,18.804 -39.489,75.139 -84.57,96.275 0,0 7.578,3.672 19.083,3.672 38.13,0 45.135,-51.09 101.963,-51.09 42.048,0 73.818,32.867 130.056,32.867 123.607,0 213.567,-126.602 224.115,-187.324 h -127.72 c 0,0 -23.747,64.7 -79.481,64.7 -54.235,0 -82.46,-41.226 -82.46,-98.09 0,-81.13 63.432,-185.697 144.622,-185.697 35.492,0 54.355,30.515 54.355,57.464 0,13.898 -3.62,22.623 -3.62,22.623 h 115.448 z"
     id="path2" />
  <path
     fill="#c8102e"
     d="m 182.183,150.279 c 0,0 -22.311,-30.149 -57.667,-30.149 -44.533,0 -58.1,36.71 -84.805,39.567 0,0 8.924,16.509 36.824,16.509 58.3,0 51.317,-42.426 105.648,-25.927 z m 29.622,315.561 c -26.317,-9.64 -42.82,9.59 -66.458,9.59 -42.032,0 -43.339,-50.308 -72.235,-59.625 0,0 6.746,14.509 6.746,23.455 0,16.115 9.656,77.894 54.747,77.894 37.805,0 36.754,-30.033 77.2,-51.314 z m 67.656,85.971 c -9.615,0 -17.404,7.788 -17.404,17.403 0,9.612 7.79,17.407 17.404,17.407 9.604,0 17.393,-7.795 17.393,-17.407 0,-9.615 -7.79,-17.403 -17.393,-17.403 z m 0,31.075 c -7.556,0 -13.666,-6.124 -13.666,-13.672 0,-7.554 6.11,-13.668 13.666,-13.668 7.54,0 13.671,6.114 13.671,13.668 0,7.548 -6.131,13.672 -13.67,13.672 z"
     id="path3" />
  <path
     fill="#c8102e"
     d="m 286.034,563.138 c -0.777,-2.478 -3.206,-4.065 -5.802,-4.065 h -8.287 v 20 h 4 v -8 h 2.852 l 4.03,8 h 3.501 l -3.952,-8.467 a 5.952,5.952 0 0 0 3.658,-7.468 z m -5.934,3.935 h -4.155 v -4 h 4.292 a 1.983,1.983 0 0 1 1.508,0.676 1.99,1.99 0 0 1 0.48,1.582 c -0.124,1.025 -1.092,1.742 -2.125,1.742 z"
     id="path4" />
</svg>
