<?xml version="1.0" encoding="UTF-8" standalone="no"?>
<svg
   fill="none"
   viewBox="0 0 778.93103 640"
   version="1.1"
   id="svg10"
   sodipodi:docname="DAL_dark.svg"
   width="778.93103"
   height="640"
   inkscape:version="1.4 (86a8ad7, 2024-10-11)"
   xmlns:inkscape="http://www.inkscape.org/namespaces/inkscape"
   xmlns:sodipodi="http://sodipodi.sourceforge.net/DTD/sodipodi-0.dtd"
   xmlns="http://www.w3.org/2000/svg"
   xmlns:svg="http://www.w3.org/2000/svg">
  <sodipodi:namedview
     id="namedview10"
     pagecolor="#ffffff"
     bordercolor="#000000"
     borderopacity="0.25"
     inkscape:showpageshadow="2"
     inkscape:pageopacity="0.0"
     inkscape:pagecheckerboard="0"
     inkscape:deskcolor="#d1d1d1"
     inkscape:zoom="1.8359375"
     inkscape:cx="388.90213"
     inkscape:cy="320"
     inkscape:window-width="3440"
     inkscape:window-height="1377"
     inkscape:window-x="-8"
     inkscape:window-y="-8"
     inkscape:window-maximized="1"
     inkscape:current-layer="svg10" />
  <g
     clip-path="url(#a)"
     id="g9"
     transform="translate(-91)">
    <path
       fill="#00823e"
       d="m 614.738,388.968 c 3.416,-5.9 6.521,-11.8 9.254,-17.762 L 869.931,239.48 H 611.136 C 591.759,219.171 563.687,206.75 529.218,203.272 L 508.723,0 386.561,202.278 h -65.77 l -22.234,37.264 H 91 L 231.111,352.45 144.163,498.026 h 63.844 L 122.239,640.062 387.431,498.026 c 7.949,0 15.837,-0.31 23.538,-0.683 L 571.947,627.02 554.682,455.546 C 578.717,438.839 598.466,417.04 614.8,389.031 M 540.522,448.838 555.365,596.464 415.378,483.68 c -10.123,0.621 -20.681,0.931 -31.363,0.931 L 159.006,605.159 231.794,484.611 H 167.825 L 248.624,349.345 129.071,253.019 h 177.126 l 22.233,-37.264 h 65.708 l 105.27,-174.33 17.575,174.517 c 38.817,1.677 69.186,14.408 88.191,37.077 H 816.395 L 613.62,361.642 c -2.981,6.832 -6.459,13.787 -10.496,20.619 -16.768,28.693 -37.263,50.554 -62.664,66.577"
       id="path1" />
    <path
       fill="#000000"
       d="m 405.069,396.235 c 21.426,0 46.269,-0.87 66.888,-12.918 26.146,-15.278 41.549,-42.232 37.946,-61.174 a 27.189,27.189 0 0 0 -0.621,-2.422 c -0.496,-1.739 -1.242,-3.354 -2.111,-4.845 0,0 -0.062,-0.124 -0.124,-0.186 a 19.062,19.062 0 0 0 -3.168,-3.913 l -0.248,-0.248 c -1.18,-1.118 -2.609,-2.174 -4.099,-3.105 a 1.925,1.925 0 0 1 -0.435,-0.311 c -1.553,-0.932 -3.229,-1.677 -5.093,-2.422 -0.248,-0.062 -0.434,-0.186 -0.683,-0.248 a 49.13,49.13 0 0 0 -6.024,-1.802 c -0.248,-0.062 -0.559,-0.124 -0.87,-0.186 -2.173,-0.497 -4.471,-0.869 -6.955,-1.242 -0.311,0 -0.684,-0.062 -0.994,-0.124 a 102.207,102.207 0 0 0 -7.95,-0.683 h -0.993 c -2.795,-0.125 -5.714,-0.187 -8.819,-0.249 h -97.693 l 12.173,9.813 12.173,9.813 -25.774,42.107 -21.054,34.407 h 64.466 z"
       id="path2" />
    <path
       fill="#000000"
       d="M 613.62,361.58 816.395,252.957 H 605.173 C 586.169,230.288 555.799,217.556 516.983,215.88 L 499.407,41.362 394.138,215.693 H 328.43 l -22.234,37.264 H 129.07 l 119.554,96.326 -80.8,135.266 h 63.969 l -72.788,120.547 225.01,-120.547 c 10.682,0 21.24,-0.31 31.363,-0.931 L 555.364,596.402 540.521,448.776 c 25.401,-16.023 45.896,-37.884 62.665,-66.577 3.975,-6.832 7.515,-13.788 10.496,-20.619 m -20.557,-21.551 c -3.044,9.13 -7.329,18.694 -13.105,28.631 -3.167,5.403 -6.459,10.558 -9.999,15.526 -2.235,3.105 -4.471,6.149 -6.893,9.068 -16.707,20.557 -38.071,36.828 -67.634,47.945 -13.539,5.031 -28.755,9.006 -46.02,11.8 6.521,0.187 17.265,0.932 29.935,1.118 h 8.26 a 172.1,172.1 0 0 0 7.95,-0.186 h 0.683 c 2.732,-0.124 5.465,-0.248 8.198,-0.435 h 0.497 c 2.856,-0.186 5.713,-0.434 8.632,-0.745 l 8.571,82.476 -98.251,-79.122 c -12.608,1.055 -26.085,1.614 -40.68,1.614 h -6.024 l -144.706,77.508 37.449,-62.043 57.386,-15.465 H 215.087 L 283.589,343.01 205.15,279.848 h 116.2 l 22.234,-37.263 h 65.645 l 71.484,-118.374 11.925,118.374 h 15.588 c 41.425,0 70.18,13.974 82.849,37.263 h 118.25 l -96.513,52.169 a 71.246,71.246 0 0 0 -1.056,-6.521 l -0.372,-1.677 a 53.751,53.751 0 0 0 -1.118,-4.533 64.464,64.464 0 0 0 -0.559,-1.801 c -0.497,-1.491 -0.994,-3.044 -1.553,-4.472 -0.186,-0.435 -0.31,-0.87 -0.497,-1.366 -0.807,-1.926 -1.614,-3.851 -2.608,-5.714 -2.422,-4.658 -5.403,-9.13 -9.005,-13.601 3.788,13.787 2.857,29.935 -3.106,47.759"
       id="path3" />
    <path
       fill="#ffffff"
       d="m 370.661,271.278 0.249,0.125 h 116.572 c 19.75,0 51.362,2.856 62.478,28.568 l 41.239,-20.122 c -12.67,-23.29 -41.425,-37.263 -82.849,-37.263 h -55.585 l 28.072,-118.374 -71.484,118.374 h -65.646 l -22.234,37.263 h -116.2 l 97.941,30.494 -19.501,32.668 -68.503,114.709 62.665,-30.742 92.91,-155.7 z m -43.286,186.442 -57.386,15.464 -37.45,62.044 80.489,-73.658 z"
       id="path4" />
    <path
       fill="#ffffff"
       d="M 605.175,305.871 709.388,279.787 H 591.139 c 2.981,5.838 5.03,12.483 5.03,12.483 3.602,4.409 6.583,8.943 9.006,13.601 z m -95.209,16.334 c 3.602,18.88 -11.862,45.834 -37.947,61.174 -20.619,12.048 -45.461,12.918 -66.888,12.918 h -64.465 l -62.852,30.68 h 127.193 c 94.836,0 129.553,-50.119 141.229,-78.439 10.247,-24.905 6.397,-41.611 3.726,-48.629 l -40.617,19.811 c 0.248,0.808 0.435,1.615 0.621,2.423 m -86.017,133.9 98.252,79.123 -42.853,-81.111 c -12.67,-0.186 -23.414,-0.931 -29.935,-1.117 l -25.464,3.043"
       id="path5" />
    <path
       fill="#a2aaad"
       d="M 591.138,279.787 549.9,299.909 c 2.671,7.018 6.521,23.724 -3.726,48.629 -11.676,28.32 -46.455,78.439 -141.229,78.439 H 277.753 l -62.665,30.743 h 112.287 l -14.408,3.85 -80.489,73.596 144.706,-77.508 h 6.024 c 14.595,0 28.072,-0.559 40.679,-1.615 L 449.351,453 c 17.265,-2.795 32.481,-6.77 46.02,-11.8 29.563,-11.055 50.927,-27.389 67.633,-47.884 a 204.715,204.715 0 0 0 6.894,-9.067 c 3.54,-4.969 6.832,-10.124 9.999,-15.527 5.776,-9.937 10.061,-19.501 13.105,-28.631 5.9,-17.824 6.831,-33.972 3.105,-47.759 0,0 -2.05,-6.645 -5.031,-12.483 M 513.63,452.751 c -2.856,0.311 -5.775,0.559 -8.632,0.745 h -0.497 c -2.795,0.187 -5.528,0.311 -8.198,0.435 h -0.683 c -2.733,0.062 -5.341,0.124 -7.95,0.186 h -8.26 l 42.853,81.11 -8.57,-82.476 z M 452.703,242.523 h 39.996 L 480.775,124.212 Z m -247.49,37.264 78.439,63.223 19.502,-32.729 z"
       id="path6" />
    <path
       fill="#a2aaad"
       d="M 487.421,271.34 H 370.848 l -0.248,-0.124 -92.911,155.699 62.852,-30.68 21.053,-34.345 25.774,-42.107 -12.172,-9.813 -12.173,-9.813 h 97.692 c 3.105,0 6.024,0.062 8.819,0.249 h 0.994 c 2.795,0.124 5.465,0.372 7.949,0.683 0.311,0 0.684,0.062 0.994,0.124 2.484,0.31 4.782,0.745 6.956,1.242 0.31,0 0.559,0.124 0.869,0.186 a 49.325,49.325 0 0 1 6.025,1.801 c 0.248,0.063 0.434,0.125 0.683,0.249 1.863,0.683 3.54,1.49 5.093,2.422 0.186,0.062 0.31,0.186 0.496,0.31 a 23.656,23.656 0 0 1 4.099,3.106 c 0.125,0.062 0.187,0.186 0.249,0.248 a 18.998,18.998 0 0 1 3.167,3.913 c 0,0.062 0,0.124 0.062,0.186 0.87,1.491 1.615,3.105 2.112,4.844 l 40.617,-19.811 C 538.782,274.197 507.17,271.34 487.421,271.34 Z m 117.753,34.531 a 94.658,94.658 0 0 1 2.608,5.714 c 0.187,0.435 0.311,0.869 0.497,1.366 0.559,1.491 1.118,2.981 1.553,4.472 0.186,0.621 0.372,1.242 0.559,1.801 0.434,1.49 0.807,3.043 1.118,4.534 l 0.372,1.676 c 0.435,2.112 0.746,4.286 1.056,6.521 l 96.512,-52.168 -104.213,26.022 z"
       id="path7" />
    <path
       fill="#ffffff"
       d="m 612.627,597.582 c 0,-7.888 -6.397,-14.347 -14.284,-14.347 -7.888,0 -14.347,6.397 -14.347,14.347 0,7.949 6.397,14.284 14.347,14.284 a 14.247,14.247 0 0 0 14.284,-14.284 z m -25.526,0 c 0,-6.211 5.031,-11.241 11.242,-11.241 6.21,0 11.241,5.03 11.241,11.241 0,6.21 -5.031,11.241 -11.241,11.241 -6.211,0 -11.242,-5.031 -11.242,-11.241 z"
       id="path8" />
    <path
       fill="#ffffff"
       d="m 604.179,605.78 -3.229,-6.894 c 1.863,-0.683 3.229,-2.484 3.229,-4.596 0,-2.67 -2.173,-4.906 -4.844,-4.906 h -6.894 v 16.396 h 3.044 v -6.646 h 2.173 l 3.106,6.646 z m -4.844,-9.689 h -3.85 v -3.602 h 3.85 a 1.802,1.802 0 0 1 0,3.602 z"
       id="path9" />
  </g>
  <defs
     id="defs10">
    <clipPath
       id="a">
      <path
         fill="#ffffff"
         d="M 0,0 H 960 V 640 H 0 Z"
         id="path10" />
    </clipPath>
  </defs>
</svg>
