<?xml version="1.0" encoding="UTF-8" standalone="no"?>
<svg
   fill="none"
   viewBox="0 0 867.14697 560"
   version="1.1"
   id="svg5"
   sodipodi:docname="MIN_dark.svg"
   width="867.14697"
   height="560"
   inkscape:version="1.4 (86a8ad7, 2024-10-11)"
   xmlns:inkscape="http://www.inkscape.org/namespaces/inkscape"
   xmlns:sodipodi="http://sodipodi.sourceforge.net/DTD/sodipodi-0.dtd"
   xmlns="http://www.w3.org/2000/svg"
   xmlns:svg="http://www.w3.org/2000/svg">
  <defs
     id="defs5" />
  <sodipodi:namedview
     id="namedview5"
     pagecolor="#ffffff"
     bordercolor="#000000"
     borderopacity="0.25"
     inkscape:showpageshadow="2"
     inkscape:pageopacity="0.0"
     inkscape:pagecheckerboard="0"
     inkscape:deskcolor="#d1d1d1"
     inkscape:zoom="1.8359375"
     inkscape:cx="433.56596"
     inkscape:cy="280.2383"
     inkscape:window-width="3440"
     inkscape:window-height="1377"
     inkscape:window-x="-8"
     inkscape:window-y="-8"
     inkscape:window-maximized="1"
     inkscape:current-layer="svg5" />
  <path
     fill="#ddc9a3"
     d="m 577.074,503.034 c -8.281,0 -15.005,6.714 -15.005,15.001 0,8.278 6.724,15.001 15.005,15.001 8.282,0 14.995,-6.723 14.995,-15 0,-8.288 -6.713,-15.002 -14.995,-15.002 z m 0,26.784 a 11.791,11.791 0 0 1 -4.511,-0.894 11.774,11.774 0 0 1 -7.271,-10.889 c 0,-6.51 5.265,-11.774 11.782,-11.774 6.51,0 11.78,5.264 11.78,11.774 0,6.512 -5.27,11.783 -11.78,11.783 z m 6.164,-15.26 a 5.097,5.097 0 0 0 -1.492,-3.595 5.092,5.092 0 0 0 -3.598,-1.487 h -7.228 v 17.123 h 3.213 v -6.954 h 2.306 l 3.246,6.954 h 3.553 l -3.389,-7.251 a 5.095,5.095 0 0 0 3.389,-4.79 z m -5.09,1.872 h -4.015 v -3.747 h 4.015 c 1.032,0 1.877,0.839 1.877,1.875 a 1.88,1.88 0 0 1 -1.877,1.872 z M 867.147,128.562 c 0,0 -30.888,-10.284 -57.618,-15.422 0.328,-0.06 29.856,-23.658 29.856,-23.658 0,0 -119.106,-31.462 -260.855,-22.048 C 578.53,67.434 557.884,0 462.57,0 391.645,0 351.163,44.462 338.576,79.093 204.85,109.026 103.063,177.448 103.063,177.448 l 24.567,18.517 C 64.706,229.495 0,282.749 0,282.749 c 0,0 6.346,31.92 44.988,82.755 0,0 25.874,19.793 94.02,45.536 0,0 13.035,-3.286 19.506,-6.581 9.35,3.125 18.997,5.76 28.501,7.502 -0.386,8.58 -2.866,20.866 12.98,35.45 l -11.516,6.106 c 0,0 14.23,35.249 92.647,53.77 29.942,-7.22 166.147,-32.97 213.15,52.713 L 731.225,326.977 h -50.458 z"
     id="path1" />
  <path
     fill="#0e4431"
     d="m 821.881,138.483 c -28.836,-10.937 -67.388,-18.972 -67.388,-18.972 l 23.972,-18.512 C 648.965,75.054 560.258,83.242 560.258,83.242 c 0,0 -17.753,-67.312 -104.016,-67.312 -83.398,0 -108.376,74.493 -108.376,74.493 -114.163,22.5 -221.608,88.137 -221.608,88.137 l 26.173,19.732 C 85.109,231.417 15.348,287.83 15.348,287.83 c 9.866,30.854 38.742,68.105 38.742,68.105 26.812,18.657 85.646,41.547 85.646,41.547 8.472,-1.939 17.627,-7.077 17.627,-7.077 0,0 29.232,11.62 60.425,11.62 11.4,0 24.152,-1.37 24.152,-5.825 0,-7.694 -23.375,-10.04 -23.375,-18.652 0,-6.276 14.05,-15.083 67.462,-15.083 31.984,0 68.19,2.234 68.19,2.234 -26.328,0 -78.027,6.692 -78.027,18.96 0,9.506 35.13,10.002 35.13,22.808 0,18.534 -27.51,24.877 -59.554,24.877 -28.695,0 -42.305,-8.178 -48.83,-8.178 -2.5,0 -4.027,1.243 -4.027,2.856 0,6.664 12.787,20.06 23.023,23.819 l -13.84,8.04 c 15.526,20.554 73.325,35.976 73.325,35.976 164.903,-35.982 215.65,46.27 215.65,46.27 l 193.214,-200.08 h -45.46 z"
     id="path2" />
  <path
     fill="#eaaa00"
     d="m 533.42,105.916 c -53.133,-1.734 -106.489,1.422 -157.497,9.224 -0.391,3.223 -0.629,6.5 -0.629,9.827 0,3.694 0.28,7.32 0.752,10.882 49.65,-5.3 104.38,-7.094 159.08,-1.3 0.372,-3.149 0.594,-6.34 0.594,-9.582 0,-6.569 -0.815,-12.935 -2.3,-19.051 z m -77.906,99.264 c 29.525,0 55.315,-15.982 69.242,-39.75 -43.535,5.576 -85.23,12.831 -121.802,20.116 14.093,12.22 32.442,19.633 52.56,19.633 z m 0,-160.418 c -40.972,0 -74.743,30.718 -79.591,70.378 0,0 40.228,-18.117 149.667,-29.14 C 511.897,61.403 485.654,44.762 455.513,44.762 Z"
     id="path3" />
  <path
     fill="#ac1a2e"
     d="m 533.418,105.916 a 80.564,80.564 0 0 1 2.3,19.051 c 0,3.243 -0.222,6.433 -0.594,9.581 34.801,3.679 69.606,10.424 103.102,21.3 -37.792,1.286 -76.306,4.823 -113.472,9.581 -13.927,23.769 -39.717,39.75 -69.243,39.75 -20.116,0 -38.466,-7.412 -52.559,-19.633 -77.476,15.446 -131.905,31.036 -131.905,31.036 38.358,1.707 60.031,10.6 60.031,10.6 -99.133,20.042 -191.3,58.25 -221.23,71.323 7.15,11.371 16.466,24.665 16.466,24.665 l -14.805,18.315 c 26.463,4.815 59.257,2.013 59.257,2.013 l 49.16,-30.106 38.576,11.572 11.628,-15.897 h -12.671 l 25.404,-40.96 21.357,40.943 h -9.566 l 6.47,14.12 26.652,-4.736 11.35,-14.457 h -10.147 l 15.147,-23.285 H 332.72 l 23.98,-40.59 20.485,41.916 -9.074,-0.004 13.739,24.457 h -10.834 l 22.194,40.435 22.174,-31.144 h -15.223 l 22.928,-34.481 h -14.717 l 33.055,-56.748 28.67,57.467 h -11.931 l 19.54,33.747 h -13.8 l 18.933,41.88 32.094,-52.444 h -17.71 l 26.222,-42.659 h -16.09 l 35.093,-71.315 36.856,74.69 h -12.94 l 23.728,39.273 h -16.225 l 18.171,38.909 29.65,-45.154 h -15.943 l 34.425,-49.623 h -18.482 l 55.15,-76.113 29.053,52.357 61.835,-76.085 C 696.481,122.809 615.236,108.587 533.418,105.916 Z m -158.126,19.051 c 0,-3.328 0.238,-6.604 0.629,-9.827 -74.552,11.4 -144.1,32.738 -200.523,63.287 0,0 87.084,-30.453 200.646,-42.578 -0.473,-3.561 -0.752,-7.188 -0.752,-10.882 z"
     id="path4" />
  <path
     fill="#ffffff"
     d="m 464.734,153.93 c -104.685,3.382 -198.819,29.495 -198.841,29.495 -0.72,-4.671 -1.43,-9.188 -2.16,-13.883 -3.243,5.486 -6.327,10.743 -9.568,16.185 -0.01,0 -47.358,17.355 -78.586,33.76 40.071,-13.815 72.574,-22.326 72.574,-22.326 a 1971.998,1971.998 0 0 1 -9.712,20.598 c 6.01,-5.366 11.742,-10.503 17.753,-15.883 4.306,2.295 8.426,4.547 12.777,6.864 -0.61,-5.12 -1.18,-10.098 -1.797,-15.287 0.016,-0.01 105.63,-29.377 197.56,-39.523 z"
     id="path5" />
</svg>
