<?xml version="1.0" encoding="UTF-8" standalone="no"?>
<svg
   width="775.68903"
   height="620"
   viewBox="0 0 775.68903 620"
   fill="none"
   version="1.1"
   id="svg6"
   sodipodi:docname="STL_dark.svg"
   inkscape:version="1.4 (86a8ad7, 2024-10-11)"
   xmlns:inkscape="http://www.inkscape.org/namespaces/inkscape"
   xmlns:sodipodi="http://sodipodi.sourceforge.net/DTD/sodipodi-0.dtd"
   xmlns="http://www.w3.org/2000/svg"
   xmlns:svg="http://www.w3.org/2000/svg">
  <defs
     id="defs6" />
  <sodipodi:namedview
     id="namedview6"
     pagecolor="#ffffff"
     bordercolor="#000000"
     borderopacity="0.25"
     inkscape:showpageshadow="2"
     inkscape:pageopacity="0.0"
     inkscape:pagecheckerboard="0"
     inkscape:deskcolor="#d1d1d1"
     inkscape:zoom="1.8359375"
     inkscape:cx="387.81277"
     inkscape:cy="310.19574"
     inkscape:window-width="3440"
     inkscape:window-height="1377"
     inkscape:window-x="-8"
     inkscape:window-y="-8"
     inkscape:window-maximized="1"
     inkscape:current-layer="svg6" />
  <path
     d="M 759.832,11.1518 H 155.519 c 49.522,75.0461 34.894,87.1302 -6.487,87.1302 L 95.694,11.1518 H 19.927 L 252.655,391.301 c -9.921,-1.314 -20.055,-2.12 -30.4,-2.12 -88.656,0 -158.106,48.25 -158.106,109.813 0,61.564 69.45,109.814 158.106,109.814 88.656,0 158.148,-48.208 158.148,-109.814 0,-15.094 -4.24,-29.679 -12.592,-43.374 L 301.923,347.969 c 0,0 45.833,15.094 77.971,5.088 l -20.309,-26.16 c 0,0 75.682,6.275 126.307,-3.943 L 461.809,297.43 c 0,0 112.697,-1.103 154.756,-70.722 h -19.291 c 0,0 53.126,-7.42 79.964,-64.828 h -19.63 c 0,0 45.706,-21.072 58.129,-68.983 h -21.242 c 0,0 47.444,-31.5025 65.379,-81.7876 z m -90.904,89.6312 h 35.403 c -6.063,34.428 -68.05,64.828 -68.05,64.828 h 29.043 c -16.747,44.858 -95.101,64.828 -95.101,64.828 h 31.63 c 0,0 -34.937,59.486 -150.983,59.486 -2.501,0 -4.833,0 -7.038,-0.085 l 26.839,28.45 c -71.527,6.232 -126.307,-0.339 -126.307,-0.339 6.742,11.617 21.836,30.315 21.836,30.315 -33.284,3.519 -81.449,-13.313 -81.449,-13.313 l 76.361,124.78 c 7.589,12.465 11.447,25.651 11.447,39.304 0,56.221 -67.414,101.969 -150.304,101.969 -82.89,0 -150.262,-45.748 -150.262,-101.969 0,-56.221 67.414,-101.97 150.262,-101.97 15.942,0 31.333,1.781 46.173,5.003 L 33.961,19.038 h 57.366 l 53.168,86.875 c 65.761,3.604 59.274,-34.7667 25.016,-86.875 h 577.728 c -16.493,46.8932 -78.311,81.788 -78.311,81.788 z"
     fill="#ffffff"
     id="path1" />
  <path
     d="M 747.239,19.0395 H 169.511 c 34.216,52.1083 40.745,90.4795 -25.015,86.8755 L 91.285,19.0395 H 33.919 L 268.385,402.072 c -14.839,-3.223 -30.272,-5.003 -46.172,-5.003 -82.848,0 -150.262,45.748 -150.262,101.969 0,56.221 67.414,101.97 150.262,101.97 82.848,0 150.304,-45.749 150.304,-101.97 0,-13.61 -3.858,-26.838 -11.447,-39.304 l -76.361,-124.78 c 0,0 48.123,16.833 81.448,13.313 0,0 -15.094,-18.698 -21.835,-30.315 0,0 54.779,6.572 126.306,0.339 L 443.79,289.842 c 2.205,0.042 4.537,0.084 7.038,0.084 116.046,0 150.983,-59.485 150.983,-59.485 h -31.63 c 0,0 78.354,-19.97 95.101,-64.828 h -29.043 c 0,0 61.987,-30.4 68.05,-64.828 h -35.403 c 0,0 61.818,-34.8947 78.311,-81.7879 z M 649.764,102.311 H 214.581 l 4.155,6.826 H 692.29 c -9.667,25.567 -76.912,58.002 -76.912,58.002 H 254.224 l 4.155,6.826 h 392.36 C 627.42,213.524 530.877,231.967 530.877,231.967 H 293.91 l 4.155,6.826 h 285.599 c 0,0 -36.802,42.823 -132.878,42.823 -19.037,0 -27.856,-1.696 -27.856,-1.696 l 29.679,31.46 c -54.61,4.283 -122.745,-3.095 -122.745,-3.095 7.208,16.409 19.164,31.672 19.164,31.672 -26.245,0 -83.144,-19.758 -83.144,-19.758 l 88.063,143.86 c 6.571,10.812 10.218,22.599 10.218,34.979 0,51.727 -63.556,93.617 -141.952,93.617 -78.396,0 -141.952,-41.933 -141.952,-93.617 0,-51.684 63.556,-93.659 141.952,-93.659 23.065,0 44.858,3.646 64.15,10.091 L 48.801,27.3497 h 37.862 l 53.042,86.6213 c 44.646,4.494 90.225,-12.254 44.688,-86.6213 h 549.491 c -20.691,41.9749 -84.078,74.9613 -84.078,74.9613 z"
     fill="#ffb81c"
     id="path2" />
  <path
     d="m 733.841,27.3486 h -549.49 c 45.536,74.3674 -0.043,91.1154 -44.689,86.6214 L 86.664,27.3486 H 48.801 L 286.405,415.469 c -19.249,-6.445 -41.042,-10.091 -64.15,-10.091 -78.395,0 -141.951,41.932 -141.951,93.659 0,51.727 63.556,93.617 141.951,93.617 78.396,0 141.952,-41.933 141.952,-93.617 0,-12.38 -3.646,-24.167 -10.218,-34.979 l -88.063,-143.86 c 0,0 56.9,19.758 83.145,19.758 0,0 -11.957,-15.263 -19.165,-31.672 0,0 68.178,7.335 122.745,3.095 l -29.679,-31.46 c 0,0 8.861,1.696 27.856,1.696 96.034,0 132.879,-42.823 132.879,-42.823 h -285.6 l -4.155,-6.826 H 530.92 c 0,0 96.585,-18.444 119.862,-58.002 h -392.36 l -4.155,-6.826 h 361.154 c 0,0 67.245,-32.435 76.912,-58.002 H 218.736 l -4.155,-6.826 h 435.183 c 0,0 63.429,-32.9864 84.077,-74.9614 z"
     fill="#004986"
     id="path3" />
  <path
     d="M 775.689,0 H 134.744 c 42.441,66.2272 56.56,88.0202 20.479,86.9603 L 101.969,0 H 0 l 231.626,378.368 c -3.138,-0.127 -6.276,-0.339 -9.371,-0.339 -94.931,0 -169.299,53.126 -169.299,121.007 0,67.881 74.368,120.964 169.299,120.964 94.932,0 169.299,-53.126 169.299,-120.964 0,-17.172 -4.791,-33.707 -14.203,-49.183 l -51.897,-84.756 c 0,0 41.763,8.395 73.139,-6.105 l -15.137,-19.504 c 0,0 63.683,5.894 122.406,-11.574 l -19.885,-21.115 c 0,0 89.334,-2.29 151.237,-81.703 h -6.19 c 0,0 46.13,-22.259 65.548,-71.442 h -6.02 c 0,0 29.552,-22.005 39.6,-67.2025 h -8.734 c 0,0 46.936,-33.1136 54.271,-86.4515 z m -81.236,92.939 h 21.241 c -12.422,47.91 -58.129,68.983 -58.129,68.983 h 19.631 c -26.838,57.408 -79.964,64.828 -79.964,64.828 h 19.291 c -42.06,69.576 -154.756,70.721 -154.756,70.721 l 24.083,25.524 c -50.625,10.218 -126.307,3.943 -126.307,3.943 l 20.309,26.161 c -32.138,10.006 -77.971,-5.088 -77.971,-5.088 l 65.888,107.651 c 8.352,13.695 12.592,28.28 12.592,43.374 0,61.563 -69.449,109.813 -158.148,109.813 -88.699,0 -158.106,-48.208 -158.106,-109.813 0,-61.606 69.45,-109.814 158.106,-109.814 10.345,0 20.479,0.806 30.4,2.12 L 19.928,11.1509 h 75.766 l 53.338,87.1301 c 41.382,0 56.009,-12.0839 6.487,-87.1301 H 759.832 C 741.897,61.4361 694.453,92.939 694.453,92.939 Z"
     fill="#041e42"
     id="path4" />
  <path
     d="m 352.293,601.685 c 0,7.419 6.021,13.44 13.441,13.44 7.42,0 13.44,-6.021 13.44,-13.44 0,-7.42 -6.02,-13.441 -13.44,-13.441 -7.42,0 -13.441,6.021 -13.441,13.441 z m 24.041,0 c 0,5.851 -4.749,10.557 -10.558,10.557 -5.808,0 -10.557,-4.749 -10.557,-10.557 0,-5.809 4.749,-10.558 10.557,-10.558 5.809,0 10.558,4.749 10.558,10.558 z"
     fill="#ffffff"
     id="path5" />
  <path
     d="m 360.221,609.358 h 2.884 v -6.275 h 2.077 l 2.926,6.275 h 3.18 l -3.053,-6.53 c 1.781,-0.636 3.01,-2.332 3.01,-4.282 0,-2.544 -2.035,-4.579 -4.537,-4.579 h -6.487 z m 2.884,-12.508 h 3.603 c 0.933,0 1.696,0.763 1.696,1.696 0,0.933 -0.763,1.696 -1.696,1.696 h -3.603 v -3.35 z"
     fill="#ffffff"
     id="path6" />
</svg>
