<svg width="960" height="640" viewBox="0 0 960 640" fill="none" xmlns="http://www.w3.org/2000/svg">
<g clip-path="url(#clip0_873_2825)">
<path d="M577.819 275.558L553.14 342.067L538.19 306.432C538.19 306.432 543.976 311.04 546.484 315.392C546.484 315.392 564.712 293.53 564.712 270.899C564.712 245.811 546.433 235.52 533.633 232.704C527.643 226.509 513.409 216.986 482.382 216.986C451.355 216.986 433.128 227.635 427.393 250.522L407.272 330.496L386.894 275.507C347.572 169.574 136.782 167.117 102.785 0C56.3468 80.8448 95.1564 150.63 95.1564 150.63C70.222 239.053 128.897 308.07 128.897 308.07C115.124 420.25 257.256 490.957 296.014 522.035C338.766 556.339 386.331 640.051 386.331 640.051C386.331 640.051 388.84 609.69 407.272 600.883C407.272 600.883 416.539 527.206 468.916 513.536C468.916 513.536 468.66 503.194 478.081 498.432L482.28 427.981L486.478 498.432C495.899 503.194 495.643 513.536 495.643 513.536C548.02 527.206 557.288 600.883 557.288 600.883C575.72 609.69 578.228 640.051 578.228 640.051C578.228 640.051 625.793 556.339 668.545 522.035C707.304 490.957 849.435 420.25 835.662 308.07C835.662 308.07 894.337 239.053 869.403 150.63C869.403 150.63 908.212 80.8448 861.774 0C827.777 167.117 617.038 169.574 577.716 275.558H577.819ZM782.926 244.326C853.377 197.018 861.262 161.894 861.262 161.894C879.899 242.074 825.012 304.589 825.012 304.589C838.734 416 700.904 482.714 662.094 513.843C623.284 544.973 581.608 614.298 581.608 614.298C578.126 602.675 570.907 596.89 567.067 594.534C562.561 564.992 542.286 517.786 504.859 505.549C504.142 502.016 501.992 496.691 496.36 492.595L482.433 397.875L468.507 492.595C462.875 496.691 460.724 502.016 460.008 505.549C422.58 517.786 402.305 565.043 397.8 594.534C393.96 596.89 386.74 602.675 383.259 614.298C383.259 614.298 341.582 545.024 302.772 513.843C263.963 482.714 126.132 416 139.854 304.589C139.854 304.589 84.9676 242.074 103.604 161.894C103.604 161.894 111.489 197.018 181.94 244.326C181.94 244.326 53.4284 143.667 101.556 30.2592C146.254 170.65 342.504 185.805 377.166 279.245L409.32 366.029L437.684 253.184C441.576 237.773 452.123 227.584 482.484 227.584C519.656 227.584 528.104 242.534 528.104 242.534C528.104 242.534 554.318 244.736 554.318 271.002C554.318 285.747 543.412 301.568 543.412 301.568C531.329 287.744 522.062 294.912 522.062 294.912L553.908 370.688L587.803 279.245C622.465 185.805 818.715 170.65 863.412 30.2592C911.54 143.718 783.08 244.326 783.08 244.326H782.926Z" fill="white"/>
<path d="M540.186 287.283C540.186 287.283 542.695 278.169 542.695 272.076C542.695 251.903 520.218 253.542 520.218 253.542C520.218 248.319 511.514 239.359 482.33 239.359C453.146 239.359 450.228 249.497 448.846 255.027L409.575 411.391L478.849 309.503L556.468 411.391L507.162 289.126C507.162 289.126 527.745 273.049 540.238 287.283H540.186ZM489.294 258.099L472.807 254.463C472.807 254.463 488.116 251.238 505.831 259.481C494.721 269.004 489.294 258.099 489.294 258.099Z" fill="white"/>
<path d="M639.566 610.406C639.566 604.211 634.549 599.244 628.405 599.244C622.261 599.244 617.243 604.262 617.243 610.406C617.243 616.55 622.261 621.567 628.405 621.567C634.549 621.567 639.566 616.55 639.566 610.406ZM619.598 610.406C619.598 605.542 623.541 601.599 628.354 601.599C633.166 601.599 637.16 605.542 637.16 610.406C637.16 615.27 633.218 619.161 628.354 619.161C623.49 619.161 619.598 615.219 619.598 610.406Z" fill="white"/>
<path d="M632.962 616.807L630.453 611.431C631.938 610.919 632.962 609.486 632.962 607.847C632.962 605.748 631.272 604.059 629.173 604.059H623.797V616.807H626.203V611.636H627.944L630.35 616.807H633.013H632.962ZM629.173 609.23H626.203V606.465H629.173C629.941 606.465 630.555 607.079 630.555 607.847C630.555 608.615 629.941 609.23 629.173 609.23Z" fill="white"/>
<path d="M210.408 248.525L164.942 136.961C134.683 116.378 111.234 94.5671 101.659 70.6055C104.117 150.887 155.522 206.081 210.459 248.525H210.408Z" fill="#C8102E"/>
<path d="M200.885 248.372L212.763 277.505C166.376 250.676 123.829 222.209 110.722 189.543C113.896 292.66 205.134 351.386 269.646 395.828L230.734 300.391C299.65 339.201 369.128 376.116 395.445 415.489C355.458 349.185 298.933 318.055 200.834 248.423L200.885 248.372Z" fill="#C8102E"/>
<path d="M149.326 319.795C152.552 422.451 276.251 467.661 314.497 505.856L287.464 439.398C319.822 458.496 349.313 477.44 370.408 496.742C294.837 392.294 177.281 381.133 149.326 319.795Z" fill="#C8102E"/>
<path d="M799.771 136.908L754.306 248.473C809.243 206.028 860.648 150.783 863.106 70.5527C853.531 94.5143 830.03 116.274 799.771 136.908Z" fill="#C8102E"/>
<path d="M733.928 300.391L695.016 395.828C759.528 351.335 850.766 292.66 853.94 189.543C840.833 222.26 798.286 250.676 751.899 277.505L763.777 248.372C665.678 318.004 609.204 349.133 569.166 415.437C595.534 376.065 664.961 339.201 733.928 300.34V300.391Z" fill="#C8102E"/>
<path d="M815.335 319.795C787.38 381.133 669.876 392.294 594.254 496.742C615.4 477.44 644.839 458.496 677.198 439.398L650.164 505.856C688.411 467.609 812.11 422.451 815.335 319.795Z" fill="#C8102E"/>
<path d="M472.808 254.514L489.294 258.149C489.294 258.149 494.721 269.055 505.832 259.532C488.168 251.289 472.808 254.514 472.808 254.514Z" fill="#041E42"/>
<path d="M587.649 279.193L553.755 370.636L521.908 294.86C521.908 294.86 531.175 287.692 543.259 301.516C543.259 301.516 554.164 285.644 554.164 270.949C554.164 244.735 527.95 242.482 527.95 242.482C527.95 242.482 519.502 227.532 482.331 227.532C451.969 227.532 441.422 237.721 437.531 253.132L409.166 365.977L377.012 279.193C342.35 185.753 146.1 170.597 101.403 30.207C53.2746 143.666 181.787 244.274 181.787 244.274C111.284 196.965 103.399 161.842 103.399 161.842C84.7626 242.021 139.649 304.537 139.649 304.537C125.927 415.948 263.758 482.661 302.567 513.791C341.377 544.921 383.054 614.245 383.054 614.245C386.535 602.623 393.755 596.837 397.595 594.482C402.1 564.94 422.375 517.733 459.803 505.497C460.519 501.964 462.67 496.639 468.302 492.543L482.228 397.823L496.155 492.543C501.787 496.639 503.988 501.964 504.654 505.497C542.081 517.733 562.356 564.991 566.862 594.482C570.702 596.837 577.921 602.623 581.403 614.245C581.403 614.245 623.079 544.972 661.889 513.791C700.699 482.661 838.529 415.948 824.807 304.537C824.807 304.537 879.694 242.021 861.057 161.842C861.057 161.842 853.172 196.965 782.721 244.274C782.721 244.274 911.233 143.615 863.054 30.207C818.356 170.597 622.107 185.753 587.444 279.193H587.649ZM101.607 70.5526C111.182 94.5142 134.683 116.274 164.891 136.908L210.356 248.473C155.47 206.028 104.065 150.834 101.607 70.5526ZM287.412 439.397L314.446 505.855C276.199 467.609 152.551 422.45 149.275 319.794C177.23 381.132 294.734 392.293 370.356 496.741C349.262 477.439 319.771 458.495 287.412 439.397ZM230.734 300.338L269.646 395.775C205.134 351.282 113.895 292.607 110.721 189.49C123.828 222.207 166.375 250.623 212.763 277.452L200.884 248.319C298.983 317.951 355.457 349.081 395.495 415.385C369.127 376.012 299.7 339.148 230.785 300.287L230.734 300.338ZM478.798 309.503L409.524 411.391L448.795 255.026C450.177 249.497 453.812 239.359 482.279 239.359C510.747 239.359 520.167 248.319 520.167 253.541C520.167 253.541 542.644 251.903 542.644 272.076C542.644 278.22 540.135 287.282 540.135 287.282C527.694 273.049 507.06 289.125 507.06 289.125L556.366 411.391L478.747 309.503H478.798ZM650.164 505.855L677.198 439.397C644.839 458.495 615.348 477.439 594.254 496.741C669.876 392.293 787.38 381.132 815.335 319.794C812.11 422.45 688.411 467.66 650.164 505.855ZM853.889 189.49C850.715 292.607 759.476 351.333 694.964 395.775L733.876 300.338C664.91 339.148 595.483 376.063 569.115 415.436C609.153 349.132 665.627 318.002 763.726 248.37L751.847 277.503C798.235 250.674 840.782 222.207 853.889 189.541V189.49ZM754.203 248.473L799.668 136.908C829.927 116.325 853.428 94.5142 863.003 70.5526C860.545 150.834 809.14 206.028 754.203 248.473Z" fill="#041E42"/>
</g>
<defs>
<clipPath id="clip0_873_2825">
<rect width="960" height="640" fill="white"/>
</clipPath>
</defs>
</svg>