<?xml version="1.0" encoding="UTF-8" standalone="no"?>
<svg
   fill="none"
   viewBox="0 0 917.96265 586.11603"
   version="1.1"
   id="svg5"
   sodipodi:docname="WSH_2.svg"
   width="917.96265"
   height="586.11603"
   inkscape:version="1.4 (86a8ad7, 2024-10-11)"
   xmlns:inkscape="http://www.inkscape.org/namespaces/inkscape"
   xmlns:sodipodi="http://sodipodi.sourceforge.net/DTD/sodipodi-0.dtd"
   xmlns="http://www.w3.org/2000/svg"
   xmlns:svg="http://www.w3.org/2000/svg">
  <defs
     id="defs5" />
  <sodipodi:namedview
     id="namedview5"
     pagecolor="#ffffff"
     bordercolor="#000000"
     borderopacity="0.25"
     inkscape:showpageshadow="2"
     inkscape:pageopacity="0.0"
     inkscape:pagecheckerboard="0"
     inkscape:deskcolor="#d1d1d1"
     inkscape:zoom="1.8359375"
     inkscape:cx="458.62128"
     inkscape:cy="293.31064"
     inkscape:window-width="3440"
     inkscape:window-height="1377"
     inkscape:window-x="-8"
     inkscape:window-y="-8"
     inkscape:window-maximized="1"
     inkscape:current-layer="svg5" />
  <path
     fill="#041e42"
     d="m 902.96767,359.993 c -8.282,0 -15.005,6.714 -15.005,15.001 0,8.278 6.723,15.001 15.005,15.001 8.282,0 14.995,-6.723 14.995,-15 0,-8.288 -6.713,-15.002 -14.995,-15.002 z m 0,26.784 a 11.772,11.772 0 0 1 -11.782,-11.783 c 0,-6.51 5.264,-11.774 11.782,-11.774 6.51,0 11.78,5.264 11.78,11.774 0,6.512 -5.27,11.783 -11.78,11.783 z m 6.164,-15.26 a 5.082,5.082 0 0 0 -5.09,-5.082 h -7.228 v 17.123 h 3.213 v -6.954 h 2.305 l 3.247,6.954 h 3.553 l -3.39,-7.251 a 5.094,5.094 0 0 0 3.39,-4.79 z m -5.09,1.872 h -4.015 v -3.747 h 4.014 a 1.88,1.88 0 0 1 1.878,1.876 1.875,1.875 0 0 1 -1.877,1.871 z"
     id="path1" />
  <path
     fill="#ffffff"
     d="m 184.17867,388.87 h 68.71 l -23.392,56.509 h 57.554 l 23.401,-56.51 h 169.232 l -4.911,11.874 c -11.23,27.108 -9.702,61.921 1.809,80.373 l 65.528,105 50.713,-73.627 h 83.073 l 45.357,-55.77 h -105.178 l -31.736,39.035 -63.168,-52.515 c -1.411,-1.329 -3.046,-8.184 -0.42,-14.5 l 28.758,-69.462 c 0,0 6.06,29.593 44.468,29.593 h 228.218 c 10.839,0 43.839,0 56.558,-30.726 11.564,-27.958 -5.693,-43.292 -5.693,-43.292 h 18.188 l 20.75,-50.052 h -111.577 c -14.105,0 -27.166,3.59 -37.44,9.755 l 52.682,-127.208 h -57.564 l -57.838,139.678 c 0,0 -10.314,-22.225 -44.16,-22.225 h -67.46 L 698.28567,0 h -57.56 l -109.653,264.8 h -140.782 c -36.717,0 -70.656,15.473 -94.566,41.427 0,0 -0.277,-41.427 -49.42,-41.427 h -125.265 c -50.076001,0 -101.690001,29.891 -117.4980008,68.052 -11.163,26.944 4.552,56.018 40.2349998,56.018 h 48.804 c 20.307001,0 41.886001,-13.515 51.190001,-20.094 0,0 10.355,20.094 40.41,20.094 z"
     id="path2" />
  <path
     fill="#c8102e"
     d="m 622.68067,470.602 -22.776,28.015 h 69.38 l 22.78,-28.015 z m -383.798,-277.679 19.919,-14.475 19.922,14.475 -7.608,-23.423 19.915,-14.464 h -24.62 l -7.609,-23.43 -7.605,23.43 h -24.632 l 19.927,14.464 z m 129.063,0 19.915,-14.475 19.93,14.475 -7.612,-23.423 19.926,-14.464 h -24.62 l -7.624,-23.43 -7.601,23.43 h -24.629 l 19.923,14.464 z m 156.59,-37.887 -7.605,-23.43 -7.608,23.43 h -24.62 l 19.918,14.464 -7.612,23.423 19.922,-14.475 19.926,14.475 -7.615,-23.423 19.922,-14.464 z m -334.681,68.858 h 0.075 l -1.514,23.22 h 8.024 l 22.385,-29.119 h -6.528 l -16.973,22.751 h -0.085 l 1.564,-22.75 h -8.23 l -17.01,22.75 h -0.074 l 1.716,-22.75 h -7.022 l -1.653,29.119 h 7.869 z m 46.199,16.696 0.65,6.525 h 7.74 l -2.821,-29.12 h -8.22 l -26.916,29.12 h 7.015 l 5.778,-6.525 z m -1.173,-17.428 0.814,12.659 h -12.111 z m 17.052,14.83 c -2.584,6.251 1.19,9.89 9.616,9.89 9.887,0 16.529,-3.55 19.017,-9.566 5.309,-12.823 -18.81,-5.253 -15.687,-12.79 1.101,-2.659 4.645,-3.992 7.353,-3.992 4.516,0 6.563,1.376 5.241,5.164 h 6.533 c 2.242,-5.895 -0.875,-9.47 -9.39,-9.47 -6.77,0 -14.19,2.697 -16.965,9.43 -4.855,11.693 18.504,5.954 15.8,12.468 -0.871,2.107 -3.814,4.431 -9.215,4.431 -5.164,0 -6.841,-2.103 -5.768,-5.565 h -6.536 z m 38.26,9.123 5.177,-12.506 h 15.85 l -5.181,12.506 h 6.536 l 12.06,-29.12 h -6.524 l -4.922,11.862 h -15.846 l 4.904,-11.862 h -6.535 l -12.069,29.12 z m 37.783,0 12.073,-29.12 h -6.536 l -12.065,29.12 z m 14.855,0 9.428,-22.748 h 0.075 l 7.488,22.748 h 8.778 l 12.065,-29.12 h -5.882 l -9.257,22.346 h -0.093 l -7.235,-22.346 h -9.197 l -12.055,29.12 z m 74.214,-19.735 c 2.818,-6.808 -2.37,-10.153 -11.155,-10.153 -11.468,0 -20.338,6.521 -23.96,15.236 -4.367,10.575 1.006,15.42 11.863,15.42 4.225,0 10.938,-0.818 15.824,-2.584 l 5.644,-13.6 h -15.694 l -1.876,4.513 h 9.311 l -2.292,5.569 c -3.65,1.005 -5.999,1.332 -8.543,1.332 -8.949,0 -9.677,-5.284 -7.428,-10.686 3.135,-7.577 10.11,-10.682 16.24,-10.682 3.231,0 6.767,1.567 5.285,5.636 z m 8.028,19.735 h 6.54 l 10.088,-24.365 h 11.095 l 1.976,-4.755 h -28.721 l -1.973,4.755 h 11.103 z m 38.058,0.767 c 10.736,0 19.094,-5.12 23.327,-15.345 4.236,-10.2 0.103,-15.31 -10.633,-15.31 -10.726,0 -19.098,5.11 -23.328,15.31 -4.235,10.224 -0.095,15.345 10.633,15.345 z m -3.86,-15.345 c 2.836,-6.859 8.291,-10.569 14.585,-10.569 6.333,0 8.671,3.71 5.828,10.57 -2.84,6.872 -8.255,10.575 -14.585,10.575 -6.286,0 -8.67,-3.703 -5.828,-10.576 z m 57,7.804 h -0.082 l -7.229,-22.346 h -9.208 l -12.061,29.12 h 5.885 l 9.428,-22.748 h 0.078 l 7.474,22.748 h 8.799 l 12.058,-29.12 h -5.889 z"
     id="path3" />
  <path
     fill="#041e42"
     d="m 112.91467,300.982 h 36.416 l 9.23,-22.3 h -37.522 c -44.205001,0 -91.066001,26.629 -104.680001,59.476 -8.2129998,19.859 3.852,36.835 27.417,36.835 h 48.805 c 21.213001,0 47.038001,-20.409 47.038001,-20.409 l -22.811,-9.617 c 0,0 -10.349,7.733 -21.568001,7.733 h -46.772 c -5.86,0 -8.278,-5.632 -5.2,-13.102 8.842,-21.334 40.023,-38.616 69.647001,-38.616 z m 71.264,74.011 h 28.278 c 10.157,0 18.867,-5.913 18.867,-5.913 l -2.442,5.913 h 27.507 l 22.52,-54.38 c 9.592,-23.156 -5.004,-41.931 -32.602,-41.931 h -71.517 l -9.233,22.3 h 77.441 c 16.533,0 11.493,12.15 11.493,12.15 h -55.77 c -22.16,0 -38.505,10.21 -43.729,22.82 -8.92,21.543 4.14,39.041 29.187,39.041 z m -5.032,-30.943 c 1.976,-4.75 7.439,-8.621 12.211,-8.621 h 38.601 c 8.824,0 16.692,-3.351 16.692,-3.351 l -4.523,10.913 c -2.211,5.356 -9.937,9.71 -15.967,9.71 h -41.96 c -4.77,0 -7.033,-3.874 -5.054,-8.65 z m 396.184,-65.368 -9.23,22.3 h 86.685 c 16.542,0 11.496,12.15 11.496,12.15 h -55.766 c -22.158,0 -38.509,10.21 -43.715,22.82 -8.938,21.543 4.119,39.041 29.177,39.041 h 28.267 c 10.163,0 18.884,-5.913 18.884,-5.913 l -2.46,5.913 h 27.518 l 22.517,-54.38 c 9.592,-23.156 -5,-41.931 -32.603,-41.931 z m 76.598,64.31 c -2.221,5.355 -9.936,9.708 -15.96,9.708 h -41.97 c -4.766,0 -7.033,-3.873 -5.06,-8.65 1.975,-4.75 7.444,-8.621 12.21,-8.621 h 38.609 c 8.813,0 16.688,-3.351 16.688,-3.351 l -4.517,10.913 z m 54.441,32.001 88.514,-213.76 h -27.503 l -88.528,213.76 z m -209.002,-96.311 h -27.51 l -9.236,22.3 h 27.502 z m -39.892,96.311 25.623,-61.86 h -27.52 l -25.62,61.86 z m 299.219,-74.157 c -8.483,20.51 2.544,37.148 24.67,37.148 h 55.841 c 4.066,0 5.999,3.295 4.307,7.36 -1.684,4.066 -6.34,7.356 -10.398,7.356 h -102.144 l -9.23,22.293 h 102.453 c 19.087,0 36.366,-4.364 43.722,-22.15 8.497,-20.524 -2.54,-37.152 -24.66,-37.152 h -55.835 c -4.072,0 -6.01,-3.294 -4.318,-7.356 1.688,-4.073 6.347,-7.353 10.41,-7.353 h 90.468 l 9.233,-22.3 h -90.793 c -19.08,0 -37.951,8.206 -43.726,22.154 z m -478.912,130.659 31.956,-77.17 c 12.2,-29.461 39.077,-53.343 81.598,-53.343 h 27.286 l -17.285,41.732 c -2.272,5.49 -8.636,9.987 -14.12,9.987 h -63.577 l -9.24,22.293 h 76.097 c 13.743,0 27.585,-6.277 35.328,-24.99 l 29.547,-71.322 h -65.08 c -51.058,0 -89.915,31.807 -106.163,71.033 l -33.86,81.78 z"
     id="path4" />
  <path
     fill="#041e42"
     d="m 487.59067,406.046 c -9.09,21.991 -8.746,52.461 0.768,67.721 l 54.327,87.047 35.758,-51.917 -66.143,-54.985 c -6.965,-5.768 -8.934,-19.492 -4.371,-30.491 l 169.586,-409.546 h -27.517 l -109.652,264.807 h -32.613 l -9.236,22.3 h 32.624 l -43.53,105.064 z"
     id="path5" />
</svg>
